<svg xmlns="http://www.w3.org/2000/svg" id="svg8396" width="304.249" height="364.971"
viewBox="0 0 304.24933 364.97067">
    <defs id="defs8400">
        <clipPath id="clipPath8412">
            <path d="M 0,273.728 H 228.188 V 0 H 0 Z" id="path8410" />
        </clipPath>
        <clipPath id="clipPath8420">
            <path d="M 52.0981,82.958 H 178.092 V 48.46 H 52.0981 Z" id="path8418"
            />
        </clipPath>
        <clipPath id="clipPath8436">
            <path d="M 92.2563,264.728 H 141.136 V 228.646 H 92.2563 Z" id="path8434"
            />
        </clipPath>
        <clipPath id="clipPath8464">
            <path d="M 78.1304,232.995 H 152.996 V 57.0596 H 78.1304 Z" id="path8462"
            />
        </clipPath>
        <clipPath id="clipPath8484">
            <path d="M 133.089,263.209 H 136 v -30.733 h -2.911 z" id="path8482" />
        </clipPath>
        <clipPath id="clipPath8500">
            <path d="m 124.47,263.209 h 2.91 v -30.733 h -2.91 z" id="path8498" />
        </clipPath>
        <clipPath id="clipPath8516">
            <path d="m 115.849,263.183 h 2.043 v -30.449 h -2.043 z" id="path8514"
            />
        </clipPath>
        <clipPath id="clipPath8532">
            <path d="m 106.836,263.602 h 2.91 v -30.735 h -2.91 z" id="path8530" />
        </clipPath>
        <clipPath id="clipPath8548">
            <path d="m 98.2163,263.209 h 2.9107 v -30.733 h -2.9107 z" id="path8546"
            />
        </clipPath>
        <clipPath id="clipPath8564">
            <path d="m 96.7729,190.159 h 38.8021 v -83.79 H 96.7729 Z" id="path8562"
            />
        </clipPath>
        <clipPath id="clipPath8580">
            <path d="M 95.3799,191.535 H 136.183 V 104.586 H 95.3799 Z" id="path8578"
            />
        </clipPath>
        <clipPath id="clipPath8600">
            <path d="m 118.305,135.821 h 10.611 v -22.204 h -10.611 z" id="path8598"
            />
        </clipPath>
        <clipPath id="clipPath8616">
            <path d="M 95.7705,192.711 H 136.573 V 105.76 H 95.7705 Z" id="path8614"
            />
        </clipPath>
    </defs>
    <g id="g8404" transform="matrix(1.33333 0 0 -1.33333 0 364.97)">
        <g id="g8406">
            <g id="g8408" clipPath="url(#clipPath8412)">
                <g id="g8414">
                    <g id="g8428">
                        <g clipPath="url(#clipPath8420)" id="g8426" opacity="0.48">
                            <g transform="translate(178.092 65.708)" id="g8424">
                                <path d="m 0,0 c 0,-9.525 -28.205,-17.248 -62.996,-17.248 -34.793,0 -62.998,7.723 -62.998,17.248 0,9.527 28.205,17.25 62.998,17.25 C -28.205,17.25 0,9.527 0,0"
                                id="path8422" fill="#679da0" />
                            </g>
                        </g>
                    </g>
                </g>
                <g id="g8430">
                    <g id="g8448">
                        <g clipPath="url(#clipPath8436)" id="g8446" opacity="0.75">
                            <g transform="translate(135.107 229.645)" id="g8440">
                                <path d="m 0,0 h -37.324 c -6.156,0 -4.393,6.205 -3.961,15.277 0.375,7.884 -1.387,18.805 3.961,18.805 H 0 c 5.215,0 4.063,-9.97 4.549,-17.629 C 5.135,7.219 6.285,0 0,0"
                                id="path8438" fill="#9c1661" />
                            </g>
                            <g transform="translate(135.107 229.645)" id="g8444">
                                <path d="m 0,0 h -37.324 c -6.156,0 -4.393,6.205 -3.961,15.277 0.375,7.884 -1.387,18.805 3.961,18.805 H 0 c 5.215,0 4.063,-9.97 4.549,-17.629 C 5.135,7.219 6.285,0 0,0 Z"
                                id="path8442" fill="none" stroke="#730f43" strokeWidth="2" strokeMiterlimit="10"
                                />
                            </g>
                        </g>
                    </g>
                </g>
                <g id="g8450" transform="translate(151.996 70.597)">
                    <path d="M 0,0 C 0,-4.021 -19.992,-11.883 -38.783,-11.752 -56.385,-11.629 -72.865,-3.768 -72.865,0 v 133.389 c 0,7.789 6.902,28.793 14.691,28.793 h 44.658 C -5.727,162.182 0,141.178 0,133.389 Z"
                    id="path8452" fill="#fff" />
                </g>
                <g id="g8454" transform="translate(151.996 70.597)">
                    <path d="M 0,0 C 0,-4.021 -19.992,-11.883 -38.783,-11.752 -56.385,-11.629 -72.865,-3.768 -72.865,0 v 133.389 c 0,7.789 6.902,28.793 14.691,28.793 h 44.658 C -5.727,162.182 0,141.178 0,133.389 Z"
                    id="path8456" fill="none" stroke="#93178f" strokeMiterlimit="10" />
                </g>
                <g id="g8458">
                    <g id="g8476">
                        <g clipPath="url(#clipPath8464)" id="g8474" opacity="0.65">
                            <g transform="translate(151.996 69.814)" id="g8468">
                                <path d="M 0,0 C 0,-4.021 -19.992,-11.885 -38.783,-11.752 -56.385,-11.629 -72.865,-3.768 -72.865,0 v 133.389 c 0,7.789 6.902,28.793 14.691,28.793 h 44.658 C -5.727,162.182 0,141.178 0,133.389 Z"
                                id="path8466" fill="#9c1661" />
                            </g>
                            <g transform="translate(151.996 69.814)" id="g8472">
                                <path d="M 0,0 C 0,-4.021 -19.992,-11.885 -38.783,-11.752 -56.385,-11.629 -72.865,-3.768 -72.865,0 v 133.389 c 0,7.789 6.902,28.793 14.691,28.793 h 44.658 C -5.727,162.182 0,141.178 0,133.389 Z"
                                id="path8470" fill="none" stroke="#80114c" strokeWidth="2" strokeMiterlimit="10"
                                />
                            </g>
                        </g>
                    </g>
                </g>
                <g id="g8478">
                    <g id="g8492">
                        <g clipPath="url(#clipPath8484)" id="g8490" opacity="0.66">
                            <g transform="translate(133.583 263.138)" id="g8488">
                                <path d="M 0,0 C 0,0 4.311,-29.773 0,-30.164" id="path8486" fill="#9c1661"
                                stroke="#80114c" strokeMiterlimit="10" />
                            </g>
                        </g>
                    </g>
                </g>
                <g id="g8494">
                    <g id="g8508">
                        <g clipPath="url(#clipPath8500)" id="g8506" opacity="0.66">
                            <g transform="translate(124.964 263.138)" id="g8504">
                                <path d="M 0,0 C 0,0 4.311,-29.773 0,-30.164" id="path8502" fill="#9c1661"
                                stroke="#80114c" strokeMiterlimit="10" />
                            </g>
                        </g>
                    </g>
                </g>
                <g id="g8510">
                    <g id="g8524">
                        <g clipPath="url(#clipPath8516)" id="g8522" opacity="0.66">
                            <g transform="translate(116.347 263.138)" id="g8520">
                                <path d="M 0,0 C 0,0 2.35,-25.854 0,-30.164" id="path8518" fill="#9c1661"
                                stroke="#80114c" strokeMiterlimit="10" />
                            </g>
                        </g>
                    </g>
                </g>
                <g id="g8526">
                    <g id="g8540">
                        <g clipPath="url(#clipPath8532)" id="g8538" opacity="0.66">
                            <g transform="translate(109.251 263.53)" id="g8536">
                                <path d="M 0,0 C 0,0 -4.311,-29.773 0,-30.165" id="path8534" fill="#9c1661"
                                stroke="#80114c" strokeMiterlimit="10" />
                            </g>
                        </g>
                    </g>
                </g>
                <g id="g8542">
                    <g id="g8556">
                        <g clipPath="url(#clipPath8548)" id="g8554" opacity="0.66">
                            <g transform="translate(100.632 263.138)" id="g8552">
                                <path d="M 0,0 C 0,0 -4.311,-29.773 0,-30.164" id="path8550" fill="#9c1661"
                                stroke="#80114c" strokeMiterlimit="10" />
                            </g>
                        </g>
                    </g>
                </g>
                <g id="g8558">
                    <g id="g8572">
                        <g clipPath="url(#clipPath8564)" id="g8570" opacity="0.62">
                            <g transform="translate(117.957 190.16)" id="g8568">
                                <path d="M 0,0 C 0,0 -46.016,-80.346 -2.408,-83.695 41.201,-87.045 0,0 0,0"
                                id="path8566" fill="#fff" />
                            </g>
                        </g>
                    </g>
                </g>
                <g id="g8574">
                    <g id="g8592">
                        <g clipPath="url(#clipPath8580)" id="g8590" opacity="0.62">
                            <g transform="translate(117.564 189.376)" id="g8584">
                                <path d="M 0,0 C 0,0 -46.016,-80.346 -2.408,-83.695 41.201,-87.045 0,0 0,0"
                                id="path8582" fill="#50ade5" />
                            </g>
                            <g transform="translate(117.564 189.376)" id="g8588">
                                <path d="M 0,0 C 0,0 -46.016,-80.346 -2.408,-83.695 41.201,-87.045 0,0 0,0 Z"
                                id="path8586" fill="none" stroke="#5590d3" strokeWidth="2" strokeMiterlimit="10"
                                />
                            </g>
                        </g>
                    </g>
                </g>
                <g id="g8594">
                    <g id="g8608">
                        <g clipPath="url(#clipPath8600)" id="g8606" opacity="0.4">
                            <g transform="translate(128.115 135.821)" id="g8604">
                                <path d="M 0,0 C 0,0 -1.105,-6.885 -4.066,-11.025 -7.867,-16.346 -13.193,-19.42 -6.908,-21.754 4.27,-25.902 0,0 0,0"
                                id="path8602" fill="#fff" />
                            </g>
                        </g>
                    </g>
                </g>
                <g id="g8610">
                    <g id="g8624">
                        <g clipPath="url(#clipPath8616)" id="g8622" opacity="0.62">
                            <g transform="translate(117.955 190.552)" id="g8620">
                                <path d="M 0,0 C 0,0 -46.016,-80.346 -2.408,-83.697 41.201,-87.047 0,0 0,0 Z"
                                id="path8618" fill="none" stroke="#5590d3" strokeWidth="2" strokeMiterlimit="10"
                                />
                            </g>
                        </g>
                    </g>
                </g>
                <g id="g8626" transform="translate(31.406 48.469)">
                    <path d="m 0,0 v -38.594 h -8.969 v 8.719 h -4.469 v -8.719 h -8.968 V 0 h 8.968 v -20.906 h 4.469 l 0,20.906 z"
                    id="path8628" fill="#231f20" />
                </g>
                <g id="g8630" transform="translate(57.406 48.438)">
                    <path d="m 0,0 v -13.906 c 0,-2.25 -0.615,-4.302 -1.844,-6.157 -1.187,-1.812 -2.781,-3.166 -4.781,-4.062 v -14.406 h -8.938 v 14.343 c -2.041,0.855 -3.677,2.199 -4.906,4.032 -1.271,1.895 -1.906,3.979 -1.906,6.25 V 0 h 8.969 v -13.906 c 0,-0.625 0.218,-1.157 0.656,-1.594 0.437,-0.438 0.958,-0.656 1.562,-0.656 0.625,0 1.157,0.218 1.594,0.656 0.438,0.437 0.656,0.969 0.656,1.594 V 0 Z"
                    id="path8632" fill="#231f20" />
                </g>
                <g id="g8634" transform="translate(73.438 37.281)">
                    <path d="M 0,0 C 0,0.604 -0.219,1.125 -0.656,1.563 -1.094,2 -1.615,2.219 -2.219,2.219 h -2.25 v -20.625 h 2.25 c 0.604,0 1.125,0.218 1.563,0.656 0.437,0.437 0.656,0.969 0.656,1.594 z m 8.969,-16.219 c -0.022,-3.083 -1.115,-5.708 -3.281,-7.875 -2.167,-2.167 -4.792,-3.26 -7.876,-3.281 h -11.25 v 38.563 h 11.25 C 0.896,11.167 3.521,10.073 5.688,7.906 7.854,5.739 8.947,3.114 8.969,0.031 Z"
                    id="path8636" fill="#231f20" />
                </g>
                <g id="g8638" transform="translate(96.781 32.281)">
                    <path d="M 0,0 C 0.625,0.021 1.156,0.239 1.594,0.656 2.031,1.094 2.25,1.625 2.25,2.25 V 4.969 C 2.25,5.573 2.031,6.094 1.594,6.531 1.156,6.969 0.625,7.188 0,7.188 H -2.219 V 0 Z M 12.719,-22.375 H 3.781 l -1.531,10.781 -0.031,0.406 c -0.105,0.625 -0.406,1.157 -0.906,1.594 -0.5,0.438 -1.053,0.656 -1.657,0.656 h -1.875 v -13.437 h -8.969 V 16.156 H 0.063 C 3.125,16.136 5.75,15.042 7.938,12.875 10.104,10.708 11.188,8.083 11.188,5 V 2.219 c 0,-2.771 -0.907,-5.198 -2.719,-7.282 1.478,-1.833 2.375,-3.854 2.687,-6.062 l 0.032,-0.25 z"
                    id="path8640" fill="#231f20" />
                </g>
                <g id="g8642" transform="translate(124.281 27.844)">
                    <path d="m 0,0 v 10.344 c 0,0.625 -0.219,1.156 -0.656,1.594 -0.438,0.437 -0.959,0.656 -1.563,0.656 -0.625,0 -1.156,-0.219 -1.594,-0.656 C -4.25,11.5 -4.469,10.969 -4.469,10.344 V 0 Z m -2.219,21.563 c 3.083,0 5.719,-1.094 7.907,-3.282 2.187,-2.187 3.281,-4.833 3.281,-7.937 V -17.938 H 0 v 8.969 h -4.469 v -8.969 h -8.969 v 28.282 c 0,3.104 1.094,5.75 3.282,7.937 2.187,2.188 4.833,3.282 7.937,3.282"
                    id="path8644" fill="#231f20" />
                </g>
                <g id="g8646" transform="translate(157.969 39.469)">
                    <path d="m 0,0 h -6.781 v -29.563 h -8.938 V 0 h -6.656 V 8.969 H 0 Z"
                    id="path8648" fill="#231f20" />
                </g>
                <path d="m 167.844,9.875 h -8.969 v 38.594 h 8.969 z" id="path8650" fill="#231f20"
                />
                <g id="g8652" transform="translate(184.906 38.188)">
                    <path d="M 0,0 C -0.021,0.625 -0.24,1.156 -0.656,1.594 -1.094,2.031 -1.625,2.25 -2.25,2.25 -2.875,2.25 -3.406,2.031 -3.844,1.594 -4.281,1.156 -4.5,0.625 -4.5,0 v -18 c 0,-0.625 0.219,-1.156 0.656,-1.594 0.438,-0.437 0.969,-0.656 1.594,-0.656 0.625,0 1.156,0.219 1.594,0.656 C -0.219,-19.156 0,-18.625 0,-18 Z m 8.938,-18.063 c -0.022,-3.083 -1.125,-5.708 -3.313,-7.875 -2.167,-2.166 -4.792,-3.25 -7.875,-3.25 -3.063,0 -5.688,1.084 -7.875,3.25 -2.188,2.146 -3.292,4.75 -3.313,7.813 V 0.094 c 0.021,3.083 1.125,5.698 3.313,7.844 2.187,2.166 4.812,3.25 7.875,3.25 3.083,0 5.708,-1.084 7.875,-3.25 C 7.813,5.771 8.916,3.146 8.938,0.063 Z"
                    id="path8654" fill="#231f20" />
                </g>
                <g id="g8656" transform="translate(219.188 48.438)">
                    <path d="m 0,0 v -38.5 h -8.938 v 9.531 l -4.5,10.5 V -38.5 h -8.937 V 0 h 8.937 v -0.219 l 4.5,-10.5 V 0 Z"
                    id="path8658" fill="#231f20" />
                </g>
            </g>
        </g>
    </g>
</svg>