<?xml version="1.0" encoding="UTF-8" standalone="no"?>
<!-- Created with Inkscape (http://www.inkscape.org/) -->

<svg
   xmlns:dc="http://purl.org/dc/elements/1.1/"
   xmlns:cc="http://creativecommons.org/ns#"
   xmlns:rdf="http://www.w3.org/1999/02/22-rdf-syntax-ns#"
   xmlns:svg="http://www.w3.org/2000/svg"
   xmlns="http://www.w3.org/2000/svg"
   xmlns:sodipodi="http://sodipodi.sourceforge.net/DTD/sodipodi-0.dtd"
   xmlns:inkscape="http://www.inkscape.org/namespaces/inkscape"
   version="1.1"
   id="svg8698"
   xml:space="preserve"
   viewBox="-10 0 550 500"
   sodipodi:docname="leisure3.svg"
   inkscape:version="0.92.2 5c3e80d, 2017-08-06"><metadata
     id="metadata8704"><rdf:RDF><cc:Work
         rdf:about=""><dc:format>image/svg+xml</dc:format><dc:type
           rdf:resource="http://purl.org/dc/dcmitype/StillImage" /><dc:title></dc:title></cc:Work></rdf:RDF></metadata><defs
     id="defs8702"><clipPath
       clipPathUnits="userSpaceOnUse"
       id="clipPath8724"><path
         d="M 0,272.916 H 391.594 V 0 H 0 Z"
         id="path8722"
         inkscape:connector-curvature="0" /></clipPath><clipPath
       clipPathUnits="userSpaceOnUse"
       id="clipPath8782"><path
         d="M 48.7061,126.937 H 308.706 V 59.9365 H 48.7061 Z"
         id="path8780"
         inkscape:connector-curvature="0" /></clipPath><clipPath
       clipPathUnits="userSpaceOnUse"
       id="clipPath8834"><path
         d="M 130.633,242.502 H 233.56 V 193.996 H 130.633 Z"
         id="path8832"
         inkscape:connector-curvature="0" /></clipPath><clipPath
       clipPathUnits="userSpaceOnUse"
       id="clipPath8850"><path
         d="m 130.223,258.098 h 62.423 v -60.792 h -62.423 z"
         id="path8848"
         inkscape:connector-curvature="0" /></clipPath><clipPath
       clipPathUnits="userSpaceOnUse"
       id="clipPath8922"><path
         d="m 124.206,197.604 h 140 v -97.333 h -140 z"
         id="path8920"
         inkscape:connector-curvature="0" /></clipPath><clipPath
       clipPathUnits="userSpaceOnUse"
       id="clipPath8926"><path
         d="m 264.206,112.651 c 0,-6.838 -5.373,-12.38 -12,-12.38 h -116 c -6.627,0 -12,5.542 -12,12.38 v 72.571 c 0,6.838 5.373,12.382 12,12.382 h 116 c 6.627,0 12,-5.544 12,-12.382 z"
         id="path8924"
         inkscape:connector-curvature="0" /></clipPath><linearGradient
       x1="0"
       y1="0"
       x2="1"
       y2="0"
       gradientUnits="userSpaceOnUse"
       gradientTransform="matrix(140,0,0,-140,124.20605,148.9375)"
       spreadMethod="pad"
       id="linearGradient8958"><stop
         style="stop-opacity:0.95001144;stop-color:#ffffff"
         offset="0"
         id="stop8932" /><stop
         style="stop-opacity:0.95001144;stop-color:#ffffff"
         offset="0.0490723"
         id="stop8934" /><stop
         style="stop-opacity:0.95001144;stop-color:#ffffff"
         offset="0.3040056"
         id="stop8936" /><stop
         style="stop-opacity:0.2047303;stop-color:#ffffff"
         offset="0.368103"
         id="stop8938" /><stop
         style="stop-opacity:0.11874571;stop-color:#ffffff"
         offset="0.404907"
         id="stop8940" /><stop
         style="stop-opacity:0.11874571;stop-color:#ffffff"
         offset="0.51275498"
         id="stop8942" /><stop
         style="stop-opacity:0;stop-color:#ffffff"
         offset="0.539871"
         id="stop8944" /><stop
         style="stop-opacity:0;stop-color:#ffffff"
         offset="0.5561047"
         id="stop8946" /><stop
         style="stop-opacity:0.14528115;stop-color:#ffffff"
         offset="0.638031"
         id="stop8948" /><stop
         style="stop-opacity:0.05351339;stop-color:#ffffff"
         offset="0.730057"
         id="stop8950" /><stop
         style="stop-opacity:0.6512398;stop-color:#ffffff"
         offset="0.938644"
         id="stop8952" /><stop
         style="stop-opacity:0.6512398;stop-color:#ffffff"
         offset="0.9726005"
         id="stop8954" /><stop
         style="stop-opacity:0.6512398;stop-color:#ffffff"
         offset="1"
         id="stop8956" /></linearGradient><mask
       maskUnits="userSpaceOnUse"
       x="0"
       y="0"
       width="1"
       height="1"
       id="mask8960"><g
         id="g8970"><g
           id="g8968"><g
             id="g8966"><g
               id="g8964"><path
                 d="M -32768,32767 H 32767 V -32767 H -32768 Z"
                 style="fill:url(#linearGradient8958);stroke:none"
                 id="path8962"
                 inkscape:connector-curvature="0" /></g></g></g></g></mask><linearGradient
       x1="0"
       y1="0"
       x2="1"
       y2="0"
       gradientUnits="userSpaceOnUse"
       gradientTransform="matrix(140,0,0,-140,124.20605,148.9375)"
       spreadMethod="pad"
       id="linearGradient8998"><stop
         style="stop-opacity:1;stop-color:#393536"
         offset="0"
         id="stop8972" /><stop
         style="stop-opacity:1;stop-color:#393536"
         offset="0.0490723"
         id="stop8974" /><stop
         style="stop-opacity:1;stop-color:#393536"
         offset="0.3040056"
         id="stop8976" /><stop
         style="stop-opacity:1;stop-color:#656263"
         offset="0.368103"
         id="stop8978" /><stop
         style="stop-opacity:1;stop-color:#656263"
         offset="0.404907"
         id="stop8980" /><stop
         style="stop-opacity:1;stop-color:#656263"
         offset="0.51275498"
         id="stop8982" /><stop
         style="stop-opacity:1;stop-color:#ffffff"
         offset="0.539871"
         id="stop8984" /><stop
         style="stop-opacity:1;stop-color:#ffffff"
         offset="0.5561047"
         id="stop8986" /><stop
         style="stop-opacity:1;stop-color:#ffffff"
         offset="0.638031"
         id="stop8988" /><stop
         style="stop-opacity:1;stop-color:#7b7979"
         offset="0.730057"
         id="stop8990" /><stop
         style="stop-opacity:1;stop-color:#393536"
         offset="0.938644"
         id="stop8992" /><stop
         style="stop-opacity:1;stop-color:#393536"
         offset="0.9726005"
         id="stop8994" /><stop
         style="stop-opacity:1;stop-color:#393536"
         offset="1"
         id="stop8996" /></linearGradient><clipPath
       clipPathUnits="userSpaceOnUse"
       id="clipPath9028"><path
         d="M 0,272.916 H 391.594 V 0 H 0 Z"
         id="path9026"
         inkscape:connector-curvature="0" /></clipPath><clipPath
       clipPathUnits="userSpaceOnUse"
       id="clipPath9048"><path
         d="M 0,272.916 H 391.594 V 0 H 0 Z"
         id="path9046"
         inkscape:connector-curvature="0" /></clipPath><clipPath
       clipPathUnits="userSpaceOnUse"
       id="clipPath9244"><path
         d="m 284.369,89.1709 h 10.666 v -6.0361 h -10.666 z"
         id="path9242"
         inkscape:connector-curvature="0" /></clipPath><clipPath
       clipPathUnits="userSpaceOnUse"
       id="clipPath9260"><path
         d="m 294.549,95.6934 h 21.463 V 83.2949 h -21.463 z"
         id="path9258"
         inkscape:connector-curvature="0" /></clipPath><clipPath
       clipPathUnits="userSpaceOnUse"
       id="clipPath9276"><path
         d="m 227.87,88.3242 h 57.37 V 71.8516 h -57.37 z"
         id="path9274"
         inkscape:connector-curvature="0" /></clipPath></defs><sodipodi:namedview
     pagecolor="#ffffff"
     bordercolor="#666666"
     borderopacity="1"
     objecttolerance="10"
     gridtolerance="10"
     guidetolerance="10"
     inkscape:pageopacity="0"
     inkscape:pageshadow="2"
     inkscape:window-width="1360"
     inkscape:window-height="847"
     id="namedview8700"
     showgrid="false"
     inkscape:zoom="1.7551541"
     inkscape:cx="216.60048"
     inkscape:cy="182.37619"
     inkscape:window-x="23"
     inkscape:window-y="11"
     inkscape:window-maximized="0"
     inkscape:current-layer="svg8698" /><path
     d="M 38.291732,338.72133 V 350.68 H 11.999733 v -59.792 h 11.958666 v 47.83333 z"
     style="fill:#231f20;fill-opacity:1;fill-rule:nonzero;stroke:none;stroke-width:1.33333325"
     id="path8710"
     inkscape:connector-curvature="0" /><path
     d="m 52.875065,302.84627 v 17.91733 h 11.958666 v 11.95734 H 52.875065 v 6 H 67.208398 V 350.6796 H 40.916399 v -59.792 h 26.291999 v 11.95867 z"
     style="fill:#231f20;fill-opacity:1;fill-rule:nonzero;stroke:none;stroke-width:1.33333325"
     id="path8714"
     inkscape:connector-curvature="0" /><path
     inkscape:connector-curvature="0"
     id="path8716"
     style="fill:#231f20;fill-opacity:1;fill-rule:nonzero;stroke:none;stroke-width:1.33333325"
     d="M 82.791998,350.68 H 70.833332 v -59.792 h 11.958666 z" /><path
     d="m 102.91666,289.6796 c 4,0.13867 7.40267,1.65333 10.208,4.54133 2.77733,2.88934 4.16667,6.348 4.16667,10.376 v 6.124 h -11.916 v -6.124 c 0,-0.80533 -0.292,-1.5 -0.87467,-2.084 -0.584,-0.58266 -1.292,-0.87466 -2.12533,-0.87466 -0.72267,0 -1.348,0.22266 -1.876,0.66666 -0.0827,0.056 -0.15334,0.12534 -0.208,0.208 h -0.0413 c -0.056,0.056 -0.112,0.12534 -0.16666,0.208 h -0.0413 c -0.056,0.084 -0.09733,0.15334 -0.12533,0.20934 v 0.0413 h -0.04133 c -0.056,0.0827 -0.09733,0.15333 -0.125334,0.208 0.028,-0.028 0.028,-0.0133 0,0.0413 -0.056,0.084 -0.09733,0.15334 -0.125333,0.20934 l -0.04133,0.124 -0.04133,0.16666 -0.04267,0.16667 -0.04133,0.12533 c 0,0.028 -0.01333,0.084 -0.04133,0.16667 v 0.12533 0.292 13.208 c 0,0.83334 0.292,1.54134 0.874667,2.12534 0.584,0.55466 1.27733,0.83333 2.084,0.83333 l 0.54133,0.0413 c 4,0.13867 7.40267,1.65334 10.208,4.54134 2.77733,2.88933 4.16667,6.348 4.16667,10.37466 0,4.112 -1.44534,7.62534 -4.33334,10.54267 -2.916,2.916 -6.44533,4.37467 -10.58266,4.37467 H 87.457994 V 338.6796 h 14.917336 c 0.83333,0 1.54133,-0.292 2.12533,-0.87467 0.58267,-0.584 0.87467,-1.27733 0.87467,-2.084 0,-0.83333 -0.292,-1.54133 -0.87467,-2.124 -0.584,-0.584 -1.292,-0.876 -2.12533,-0.876 h -0.584 c -3.972003,-0.16666 -7.34667,-1.68 -10.125336,-4.54133 -2.777334,-2.888 -4.18,-6.33333 -4.208,-10.33333 v -13.292 c 0.028,-4.11067 1.486666,-7.61067 4.374666,-10.5 2.889334,-2.888 6.389333,-4.34667 10.5,-4.37467 z"
     style="fill:#231f20;fill-opacity:1;fill-rule:nonzero;stroke:none;stroke-width:1.33333325"
     id="path8728"
     inkscape:connector-curvature="0" /><path
     d="m 150.5,290.9296 v 46.04133 c 0,4.112 -1.44533,7.62534 -4.33333,10.54267 -2.91734,2.916 -6.44534,4.37467 -10.584,4.37467 -4.11067,0 -7.624,-1.45867 -10.54134,-4.37467 -2.916,-2.91733 -4.37466,-6.43067 -4.37466,-10.54267 V 290.9296 h 11.95866 v 46.04133 c 0,0.80667 0.29067,1.5 0.87467,2.084 0.58267,0.58267 1.27733,0.87467 2.08267,0.87467 0.83333,0 1.54266,-0.292 2.12533,-0.87467 0.584,-0.584 0.87467,-1.27733 0.87467,-2.084 V 290.9296 Z"
     style="fill:#231f20;fill-opacity:1;fill-rule:nonzero;stroke:none;stroke-width:1.33333325"
     id="path8732"
     inkscape:connector-curvature="0" /><path
     d="m 169.7084,320.80467 c 0.83333,-0.028 1.54133,-0.31867 2.12533,-0.87467 0.58267,-0.584 0.87467,-1.292 0.87467,-2.12533 V 305.846 c 0,-0.804 -0.292,-1.5 -0.87467,-2.08266 -0.584,-0.584 -1.292,-0.876 -2.12533,-0.876 h -2.95867 v 17.91733 z m 16.95867,29.83333 h -11.91734 l -2.04133,-14.37466 -0.0413,-0.54134 c -0.14,-0.83333 -0.54134,-1.54266 -1.208,-2.12533 -0.66667,-0.584 -1.404,-0.87467 -2.20934,-0.87467 h -2.5 v 17.916 H 154.79107 V 290.93 h 15.00133 c 4.08267,0.028 7.58267,1.48667 10.5,4.37467 2.888,2.88933 4.33333,6.38933 4.33333,10.5 V 317.846 c 0,3.696 -1.20933,6.93067 -3.62533,9.70934 1.97067,2.444 3.16667,5.13866 3.58267,8.08266 l 0.0427,0.33334 z"
     style="fill:#231f20;fill-opacity:1;fill-rule:nonzero;stroke:none;stroke-width:1.33333325"
     id="path8736"
     inkscape:connector-curvature="0" /><path
     d="m 200.45839,302.84627 v 17.91733 h 11.95867 v 11.95734 h -11.95867 v 6 h 14.33333 v 11.95866 h -26.292 v -59.792 h 26.292 v 11.95867 z"
     style="fill:#231f20;fill-opacity:1;fill-rule:nonzero;stroke:none;stroke-width:1.33333325"
     id="path8740"
     inkscape:connector-curvature="0" /><path
     d="M 252.62506,326.72133 V 304.596 c 0,-0.83334 -0.292,-1.54134 -0.87467,-2.12534 -0.584,-0.58266 -1.27866,-0.87466 -2.084,-0.87466 -0.83333,0 -1.54133,0.292 -2.12533,0.87466 -0.58267,0.584 -0.87467,1.292 -0.87467,2.12534 v 22.12533 z m -2.95867,-37.084 c 4.11067,0 7.62534,1.45867 10.54267,4.376 2.916,2.916 4.37467,6.44533 4.37467,10.58267 v 46.04266 H 252.62506 V 338.68 h -5.95867 v 11.95866 H 234.70773 V 304.596 c 0,-4.13734 1.45866,-7.66667 4.376,-10.58267 2.916,-2.91733 6.444,-4.376 10.58266,-4.376"
     style="fill:#231f20;fill-opacity:1;fill-rule:nonzero;stroke:none;stroke-width:1.33333325"
     id="path8744"
     inkscape:connector-curvature="0" /><path
     d="m 298.54173,330.97133 v 6.04133 c -0.028,4.112 -1.5,7.62534 -4.41733,10.54267 -2.916,2.888 -6.416,4.33333 -10.5,4.33333 -4.11067,0 -7.624,-1.44533 -10.54134,-4.33333 -2.916,-2.88933 -4.38933,-6.376 -4.416,-10.45867 V 304.43 c 0.0267,-4.084 1.5,-7.56934 4.416,-10.45867 2.91734,-2.888 6.43067,-4.33333 10.54134,-4.33333 4.084,0 7.584,1.44533 10.5,4.33333 2.91733,2.916 4.38933,6.43067 4.41733,10.54133 v 6.04134 h -11.95867 v -6 c 0,-0.804 -0.292,-1.5 -0.87466,-2.08267 -0.584,-0.584 -1.27867,-0.87467 -2.084,-0.87467 -0.83334,0 -1.54134,0.29067 -2.124,0.87467 -0.584,0.58267 -0.876,1.27867 -0.876,2.08267 v 32.376 c 0,0.83333 0.292,1.54133 0.876,2.12533 0.58266,0.58267 1.29066,0.87467 2.124,0.87467 0.80533,0 1.5,-0.292 2.084,-0.87467 0.58266,-0.584 0.87466,-1.292 0.87466,-2.12533 v -5.95867 z"
     style="fill:#231f20;fill-opacity:1;fill-rule:nonzero;stroke:none;stroke-width:1.33333325"
     id="path8748"
     inkscape:connector-curvature="0" /><path
     d="m 330.70839,302.888 h -9.04133 v 47.75067 H 309.74972 V 302.888 h -8.87466 v -11.95867 h 29.83333 z"
     style="fill:#231f20;fill-opacity:1;fill-rule:nonzero;stroke:none;stroke-width:1.33333325"
     id="path8752"
     inkscape:connector-curvature="0" /><path
     inkscape:connector-curvature="0"
     id="path8754"
     style="fill:#231f20;fill-opacity:1;fill-rule:nonzero;stroke:none;stroke-width:1.33333325"
     d="m 343.87466,350.68 h -11.95867 v -59.792 h 11.95867 z" /><path
     d="m 385.16666,290.9296 -11.62533,59.708 h -13.87467 l -11.5,-59.708 h 11.95867 l 6.83333,39.33333 5.208,-39.33333 z"
     style="fill:#231f20;fill-opacity:1;fill-rule:nonzero;stroke:none;stroke-width:1.33333325"
     id="path8758"
     inkscape:connector-curvature="0" /><path
     inkscape:connector-curvature="0"
     id="path8760"
     style="fill:#231f20;fill-opacity:1;fill-rule:nonzero;stroke:none;stroke-width:1.33333325"
     d="m 399.20799,350.68 h -11.95867 v -59.792 h 11.95867 z" /><path
     d="m 432.41666,302.888 h -9.04133 v 47.75067 H 411.45799 V 302.888 h -8.87466 v -11.95867 h 29.83333 z"
     style="fill:#231f20;fill-opacity:1;fill-rule:nonzero;stroke:none;stroke-width:1.33333325"
     id="path8764"
     inkscape:connector-curvature="0" /><path
     inkscape:connector-curvature="0"
     id="path8766"
     style="fill:#231f20;fill-opacity:1;fill-rule:nonzero;stroke:none;stroke-width:1.33333325"
     d="m 445.58399,350.68 h -11.95867 v -59.792 h 11.95867 z" /><path
     d="m 461.91666,302.84627 v 17.91733 h 11.95867 v 11.95734 h -11.95867 v 6 h 14.33333 v 11.95866 h -26.292 v -59.792 h 26.292 v 11.95867 z"
     style="fill:#231f20;fill-opacity:1;fill-rule:nonzero;stroke:none;stroke-width:1.33333325"
     id="path8770"
     inkscape:connector-curvature="0" /><path
     d="m 495.74999,289.6796 c 4,0.13867 7.40267,1.65333 10.208,4.54133 2.77733,2.88934 4.16667,6.348 4.16667,10.376 v 6.124 h -11.916 v -6.124 c 0,-0.80533 -0.292,-1.5 -0.87467,-2.084 -0.584,-0.58266 -1.292,-0.87466 -2.12533,-0.87466 -0.72267,0 -1.348,0.22266 -1.876,0.66666 -0.0827,0.056 -0.15334,0.12534 -0.208,0.208 h -0.0413 c -0.056,0.056 -0.112,0.12534 -0.16666,0.208 h -0.0413 c -0.056,0.084 -0.0973,0.15334 -0.12533,0.20934 v 0.0413 h -0.0413 c -0.056,0.0827 -0.0973,0.15333 -0.12534,0.208 0.028,-0.028 0.028,-0.0133 0,0.0413 -0.056,0.084 -0.0973,0.15334 -0.12533,0.20934 l -0.0413,0.124 -0.0413,0.16666 -0.0427,0.16667 -0.0413,0.12533 c 0,0.028 -0.0133,0.084 -0.0413,0.16667 v 0.12533 0.292 13.208 c 0,0.83334 0.292,1.54134 0.87467,2.12534 0.584,0.55466 1.27733,0.83333 2.084,0.83333 l 0.54133,0.0413 c 4,0.13867 7.40267,1.65334 10.208,4.54134 2.77733,2.88933 4.16667,6.348 4.16667,10.37466 0,4.112 -1.44534,7.62534 -4.33334,10.54267 -2.916,2.916 -6.44533,4.37467 -10.58266,4.37467 H 480.29132 V 338.6796 h 14.91734 c 0.83333,0 1.54133,-0.292 2.12533,-0.87467 0.58267,-0.584 0.87467,-1.27733 0.87467,-2.084 0,-0.83333 -0.292,-1.54133 -0.87467,-2.124 -0.584,-0.584 -1.292,-0.876 -2.12533,-0.876 h -0.584 c -3.972,-0.16666 -7.34667,-1.68 -10.12534,-4.54133 -2.77733,-2.888 -4.18,-6.33333 -4.208,-10.33333 v -13.292 c 0.028,-4.11067 1.48667,-7.61067 4.37467,-10.5 2.88933,-2.888 6.38933,-4.34667 10.5,-4.37467 z"
     style="fill:#231f20;fill-opacity:1;fill-rule:nonzero;stroke:none;stroke-width:1.33333325"
     id="path8774"
     inkscape:connector-curvature="0" /><g
     id="g8778"
     transform="matrix(1.3333333,0,0,-1.3333333,0,363.888)" /><g
     id="g8794"
     transform="matrix(1.3333333,0,0,-1.3333333,0,363.888)"><g
       clip-path="url(#clipPath8782)"
       id="g8792"
       style="opacity:0.41000402"><g
         transform="translate(307.7061,93.4365)"
         id="g8786"><path
           d="m 0,0 c 0,-17.949 -57.755,-32.5 -129,-32.5 -71.245,0 -129,14.551 -129,32.5 0,17.949 57.755,32.5 129,32.5 C -57.755,32.5 0,17.949 0,0"
           style="fill:#27798c;fill-opacity:1;fill-rule:nonzero;stroke:none"
           id="path8784"
           inkscape:connector-curvature="0" /></g><g
         transform="translate(307.7061,93.4365)"
         id="g8790"><path
           d="m 0,0 c 0,-17.949 -57.755,-32.5 -129,-32.5 -71.245,0 -129,14.551 -129,32.5 0,17.949 57.755,32.5 129,32.5 C -57.755,32.5 0,17.949 0,0 Z"
           style="fill:none;stroke:#2f7f99;stroke-width:2;stroke-linecap:butt;stroke-linejoin:miter;stroke-miterlimit:10;stroke-dasharray:none;stroke-opacity:1"
           id="path8788"
           inkscape:connector-curvature="0" /></g></g></g><path
     d="m 138.4688,95.08334 2.13867,-0.833333 c 0,0 -2.916,-0.917334 -2.916,-2.417334 0,-1.5 0.77733,3.250667 0.77733,3.250667"
     style="fill:#fffee8;fill-opacity:1;fill-rule:nonzero;stroke:none;stroke-width:1.33333325"
     id="path8798"
     inkscape:connector-curvature="0" /><path
     d="m 138.4688,95.08334 2.13867,-0.833333 c 0,0 -2.916,-0.917334 -2.916,-2.417334 0,-1.5 0.77733,3.250667 0.77733,3.250667 z"
     style="fill:none;stroke:#b1b372;stroke-width:0.33333331;stroke-linecap:butt;stroke-linejoin:miter;stroke-miterlimit:10;stroke-dasharray:none;stroke-opacity:1"
     id="path8802"
     inkscape:connector-curvature="0" /><path
     d="m 159.05213,79.58334 c 0,0 -21.36133,11.389333 -20.69467,15.556 -2.416,0.08267 -2.416,-0.333334 -4.416,-1.333334 -3.16666,-1.666666 -8.66666,-2.833333 -8.66666,-2.833333 l 18.33333,-9.417333 z"
     style="fill:#fffee8;fill-opacity:1;fill-rule:nonzero;stroke:none;stroke-width:1.33333325"
     id="path8806"
     inkscape:connector-curvature="0" /><path
     d="m 159.05213,79.58334 c 0,0 -21.36133,11.389333 -20.69467,15.556 -2.416,0.08267 -2.416,-0.333334 -4.416,-1.333334 -3.16666,-1.666666 -8.66666,-2.833333 -8.66666,-2.833333 l 18.33333,-9.417333 z"
     style="fill:none;stroke:#b1b372;stroke-width:0.33333331;stroke-linecap:butt;stroke-linejoin:miter;stroke-miterlimit:10;stroke-dasharray:none;stroke-opacity:1"
     id="path8810"
     inkscape:connector-curvature="0" /><path
     d="m 132.33066,100.91667 c -4.66667,1.83333 -5.09733,0.556 -5.09733,0.556 -0.18134,0.444 -2.52667,-6.796 -0.292,-8.833333 0.71066,-0.646667 -0.20534,0.76 0.60533,3.029333 0.53333,1.493333 1.81067,3.354667 4.784,5.248"
     style="fill:#fffee8;fill-opacity:1;fill-rule:nonzero;stroke:none;stroke-width:1.33333325"
     id="path8814"
     inkscape:connector-curvature="0" /><path
     d="m 132.33066,100.91667 c -4.66667,1.83333 -5.09733,0.556 -5.09733,0.556 -0.18134,0.444 -2.52667,-6.796 -0.292,-8.833333 0.71066,-0.646667 -0.20534,0.76 0.60533,3.029333 0.53333,1.493333 1.81067,3.354667 4.784,5.248 z"
     style="fill:none;stroke:#b1b372;stroke-width:0.33333331;stroke-linecap:butt;stroke-linejoin:miter;stroke-miterlimit:10;stroke-dasharray:none;stroke-opacity:1"
     id="path8818"
     inkscape:connector-curvature="0" /><path
     d="m 368.27479,83.08334 -215.60933,1.222667 24.736,-12.777333 210.428,0.888 z"
     style="fill:#4f4c4d;fill-opacity:1;fill-rule:nonzero;stroke:none;stroke-width:1.33333325"
     id="path8822"
     inkscape:connector-curvature="0" /><path
     d="m 368.27479,83.08334 -215.60933,1.222667 24.736,-12.777333 210.428,0.888 z"
     style="fill:none;stroke:#231f20;stroke-width:1.33333325;stroke-linecap:butt;stroke-linejoin:miter;stroke-miterlimit:10;stroke-dasharray:none;stroke-opacity:1"
     id="path8826"
     inkscape:connector-curvature="0" /><g
     id="g8830"
     transform="matrix(1.3333333,0,0,-1.3333333,0,363.888)" /><g
     style="opacity:0.33999604"
     id="g8840"
     clip-path="url(#clipPath8834)"
     transform="matrix(1.3333333,0,0,-1.3333333,0,363.888)"><g
       id="g8838"
       transform="translate(233.5596,213.9492)"><path
         inkscape:connector-curvature="0"
         id="path8836"
         style="fill:#1d6434;fill-opacity:1;fill-rule:nonzero;stroke:none"
         d="m 0,0 c -35.684,34.598 -90.974,-19.953 -90.974,-19.953 l -11.953,3.932 63.005,44.574 c 0,0 32.321,-1.641 39.922,-28.553" /></g></g><g
     id="g8846"
     transform="matrix(1.3333333,0,0,-1.3333333,0,363.888)" /><g
     id="g8858"
     transform="matrix(1.3333333,0,0,-1.3333333,0,363.888)"><g
       clip-path="url(#clipPath8850)"
       id="g8856"
       style="opacity:0.44000202"><g
         transform="translate(182.3936,258.0977)"
         id="g8854"><path
           d="m 0,0 c 2.545,-9.698 -52.171,-60.792 -52.171,-60.792 l 62.423,45.314 C 10.252,-15.478 7.69,-3.091 0,0"
           style="fill:#1d6434;fill-opacity:1;fill-rule:nonzero;stroke:none"
           id="path8852"
           inkscape:connector-curvature="0" /></g></g></g><path
     d="m 167.3372,78.43494 c 0,0 -38.61867,1.877333 -40.396,22.76667 -14.444,-10.000004 -6.42667,-19.17467 -7.77733,-18.784003 -1.352,0.389333 24.928,-17.605333 24.928,-17.605333 z"
     style="fill:#fffee8;fill-opacity:1;fill-rule:nonzero;stroke:none;stroke-width:1.33333325"
     id="path8862"
     inkscape:connector-curvature="0" /><path
     d="m 167.3372,78.43494 c 0,0 -38.61867,1.877333 -40.396,22.76667 -14.444,-10.000004 -6.42667,-19.17467 -7.77733,-18.784003 -1.352,0.389333 24.928,-17.605333 24.928,-17.605333 z"
     style="fill:none;stroke:#b1b372;stroke-width:0.66666663;stroke-linecap:butt;stroke-linejoin:miter;stroke-miterlimit:10;stroke-dasharray:none;stroke-opacity:1"
     id="path8866"
     inkscape:connector-curvature="0" /><path
     d="m 166.56906,78.454407 c 0,0 -45.28,0.956 -55.41733,16.032 -0.24934,0.370666 -3.10534,3.554666 -3.27734,2.242666 1.80534,-5.072 1.52534,-9.105333 1.52534,-9.105333 l 23.98,-11.592 33.632,-7.370666 z"
     style="fill:#fffee8;fill-opacity:1;fill-rule:nonzero;stroke:none;stroke-width:1.33333325"
     id="path8870"
     inkscape:connector-curvature="0" /><path
     d="m 166.56906,78.454407 c 0,0 -45.28,0.956 -55.41733,16.032 -0.24934,0.370666 -3.10534,3.554666 -3.27734,2.242666 1.80534,-5.072 1.52534,-9.105333 1.52534,-9.105333 l 23.98,-11.592 33.632,-7.370666 z"
     style="fill:none;stroke:#b1b372;stroke-width:0.66666663;stroke-linecap:butt;stroke-linejoin:miter;stroke-miterlimit:10;stroke-dasharray:none;stroke-opacity:1"
     id="path8874"
     inkscape:connector-curvature="0" /><path
     d="m 163.28906,79.45054 c 0,0 -48.60533,0.881333 -59.724,17.776 -0.27333,0.416 -1.624,2.381333 -1.78667,0.906666 2.01734,-5.690666 7.10134,-11.802666 7.10134,-11.802666 l 18.832,-9.744 36.208,-8.138666 z"
     style="fill:#fffee8;fill-opacity:1;fill-rule:nonzero;stroke:none;stroke-width:1.33333325"
     id="path8878"
     inkscape:connector-curvature="0" /><path
     d="m 163.28906,79.45054 c 0,0 -48.60533,0.881333 -59.724,17.776 -0.27333,0.416 -1.624,2.381333 -1.78667,0.906666 2.01734,-5.690666 7.10134,-11.802666 7.10134,-11.802666 l 18.832,-9.744 36.208,-8.138666 z"
     style="fill:none;stroke:#b1b372;stroke-width:0.66666663;stroke-linecap:butt;stroke-linejoin:miter;stroke-miterlimit:10;stroke-dasharray:none;stroke-opacity:1"
     id="path8882"
     inkscape:connector-curvature="0" /><path
     d="m 400.27479,222.63934 c 0,8.836 -7.164,16 -16,16 H 182.94146 c -8.836,0 -16,-7.164 -16,-16 V 87.972677 c 0,-8.837333 7.164,-16 16,-16 h 201.33333 c 8.836,0 16,7.162667 16,16 z"
     style="fill:#393536;fill-opacity:1;fill-rule:nonzero;stroke:none;stroke-width:1.33333325"
     id="path8886"
     inkscape:connector-curvature="0" /><path
     d="m 400.27479,222.63934 c 0,8.836 -7.164,16 -16,16 H 182.94146 c -8.836,0 -16,-7.164 -16,-16 V 87.972677 c 0,-8.837333 7.164,-16 16,-16 h 201.33333 c 8.836,0 16,7.162667 16,16 z"
     style="fill:none;stroke:#231f20;stroke-width:2.66666651;stroke-linecap:butt;stroke-linejoin:miter;stroke-miterlimit:10;stroke-dasharray:none;stroke-opacity:1"
     id="path8890"
     inkscape:connector-curvature="0" /><path
     d="M 399.82946,83.528674 399.08413,226.43667 376.27479,240.418 378.49613,94.19534 Z"
     style="fill:#4f4c4d;fill-opacity:1;fill-rule:nonzero;stroke:none;stroke-width:1.33333325"
     id="path8894"
     inkscape:connector-curvature="0" /><path
     d="M 399.82946,83.528674 399.08413,226.43667 376.27479,240.418 378.49613,94.19534 Z"
     style="fill:none;stroke:#231f20;stroke-width:1.33333325;stroke-linecap:butt;stroke-linejoin:miter;stroke-miterlimit:10;stroke-dasharray:none;stroke-opacity:1"
     id="path8898"
     inkscape:connector-curvature="0" /><path
     d="m 377.60812,233.306 c 0,8.836 -7.164,16 -16,16 H 160.27479 c -8.836,0 -16,-7.164 -16,-16 V 98.639337 c 0,-8.837333 7.164,-16 16,-16 h 201.33333 c 8.836,0 16,7.162667 16,16 z"
     style="fill:#393536;fill-opacity:1;fill-rule:nonzero;stroke:none;stroke-width:1.33333325"
     id="path8902"
     inkscape:connector-curvature="0" /><path
     d="m 377.60812,233.306 c 0,8.836 -7.164,16 -16,16 H 160.27479 c -8.836,0 -16,-7.164 -16,-16 V 98.639337 c 0,-8.837333 7.164,-16 16,-16 h 201.33333 c 8.836,0 16,7.162667 16,16 z"
     style="fill:none;stroke:#231f20;stroke-width:2.66666651;stroke-linecap:butt;stroke-linejoin:miter;stroke-miterlimit:10;stroke-dasharray:none;stroke-opacity:1"
     id="path8906"
     inkscape:connector-curvature="0" /><path
     d="m 350.94146,213.68614 c 0,9.11733 -7.164,16.508 -16,16.508 H 180.2748 c -8.836,0 -16,-7.39067 -16,-16.508 v -96.76 c 0,-9.11733 7.164,-16.50933 16,-16.50933 h 154.66666 c 8.836,0 16,7.392 16,16.50933 z"
     style="fill:#918f90;fill-opacity:1;fill-rule:nonzero;stroke:none;stroke-width:1.33333325"
     id="path8910"
     inkscape:connector-curvature="0" /><path
     d="m 350.94146,213.68614 c 0,9.11733 -7.164,16.508 -16,16.508 H 180.2748 c -8.836,0 -16,-7.39067 -16,-16.508 v -96.76 c 0,-9.11733 7.164,-16.50933 16,-16.50933 h 154.66666 c 8.836,0 16,7.392 16,16.50933 z"
     style="fill:none;stroke:#656263;stroke-width:1.33333325;stroke-linecap:butt;stroke-linejoin:miter;stroke-miterlimit:10;stroke-dasharray:none;stroke-opacity:1"
     id="path8914"
     inkscape:connector-curvature="0" /><g
     style="opacity:0.17999303"
     id="g9014"
     clip-path="url(#clipPath8922)"
     transform="matrix(1.3333333,0,0,-1.3333333,0,363.888)"><g
       id="g9012"><g
         id="g9010"
         clip-path="url(#clipPath8926)"><g
           id="g9008"><g
             id="g9000" /><g
             id="g9006"
             mask="url(#mask8960)"><g
               id="g9004"><path
                 inkscape:connector-curvature="0"
                 id="path9002"
                 style="fill:url(#linearGradient8998);stroke:none"
                 d="m 264.206,112.651 c 0,-6.838 -5.373,-12.38 -12,-12.38 h -116 c -6.627,0 -12,5.542 -12,12.38 v 72.571 c 0,6.838 5.373,12.382 12,12.382 h 116 c 6.627,0 12,-5.544 12,-12.382 z" /></g></g></g></g></g></g><path
     d="m 252.51953,126.0931 h -47.54688 v 19.0586 h 14.14453 v 62.8203 h 18.99219 v -62.8203 h 14.41016 z"
     id="path4082"
     inkscape:connector-curvature="0"
     style="font-variant:normal;font-weight:normal;font-stretch:normal;font-size:medium;font-family:FORQUE;-inkscape-font-specification:FORQUE;writing-mode:lr-tb;fill:#4f4c4d;fill-opacity:1;fill-rule:nonzero;stroke:none;stroke-width:1.33333325" /><path
     d="m 292.82759,126.0931 -8.30078,49.40625 -10.89063,-49.40625 h -19.05859 l 18.32812,81.8789 h 22.11328 l 18.52735,-81.8789 z"
     id="path4084"
     inkscape:connector-curvature="0"
     style="font-variant:normal;font-weight:normal;font-stretch:normal;font-size:medium;font-family:FORQUE;-inkscape-font-specification:FORQUE;writing-mode:lr-tb;fill:#4f4c4d;fill-opacity:1;fill-rule:nonzero;stroke:none;stroke-width:1.33333325" /><path
     d="m 252.51946,145.15174 h -14.41067 v 62.82 h -18.992 v -62.82 h -14.144 v -19.05867 h 47.54667 z"
     style="fill:none;stroke:#4f4c4d;stroke-width:1.33333325;stroke-linecap:butt;stroke-linejoin:miter;stroke-miterlimit:10;stroke-dasharray:none;stroke-opacity:1"
     id="path9032"
     inkscape:connector-curvature="0" /><path
     d="m 313.48053,126.09307 -18.528,81.87867 h -22.112 l -18.32934,-81.87867 h 19.05867 l 10.89067,49.40667 8.30133,-49.40667 z"
     style="fill:none;stroke:#4f4c4d;stroke-width:1.33333325;stroke-linecap:butt;stroke-linejoin:miter;stroke-miterlimit:10;stroke-dasharray:none;stroke-opacity:1"
     id="path9036"
     inkscape:connector-curvature="0" /><path
     style="font-variant:normal;font-weight:normal;font-stretch:normal;font-size:medium;font-family:FORQUE;-inkscape-font-specification:FORQUE;writing-mode:lr-tb;fill:#918f90;fill-opacity:1;fill-rule:nonzero;stroke:none;stroke-width:1.33333325"
     d="m 248.96352,124.7591 h -47.54687 v 19.05859 h 14.14453 V 206.638 h 18.99218 v -62.82031 h 14.41016 z"
     id="path4077"
     inkscape:connector-curvature="0" /><path
     style="font-variant:normal;font-weight:normal;font-stretch:normal;font-size:medium;font-family:FORQUE;-inkscape-font-specification:FORQUE;writing-mode:lr-tb;fill:#918f90;fill-opacity:1;fill-rule:nonzero;stroke:none;stroke-width:1.33333325"
     d="m 289.27158,124.7591 -8.30078,49.40624 -10.89062,-49.40624 h -19.0586 l 18.32813,81.8789 h 22.11328 l 18.52734,-81.8789 z"
     id="path4079"
     inkscape:connector-curvature="0" /><path
     d="m 248.96359,143.81774 h -14.41066 v 62.82 h -18.992 v -62.82 h -14.144 v -19.05867 h 47.54666 z"
     style="fill:none;stroke:#393536;stroke-width:1.33333325;stroke-linecap:butt;stroke-linejoin:miter;stroke-miterlimit:10;stroke-dasharray:none;stroke-opacity:1"
     id="path9052"
     inkscape:connector-curvature="0" /><path
     d="m 309.92453,124.75907 -18.528,81.87867 h -22.112 l -18.32934,-81.87867 h 19.05867 l 10.89067,49.40667 8.30133,-49.40667 z"
     style="fill:none;stroke:#393536;stroke-width:1.33333325;stroke-linecap:butt;stroke-linejoin:miter;stroke-miterlimit:10;stroke-dasharray:none;stroke-opacity:1"
     id="path9056"
     inkscape:connector-curvature="0" /><path
     d="m 174.7864,98.778673 c 0,0 22.64667,38.321337 15.01067,48.254667 -1.15867,2.38133 29.664,-10.51467 29.664,-10.51467 l 12.628,-9.48533 -40.96534,-33.444 z"
     style="fill:#fffee8;fill-opacity:1;fill-rule:nonzero;stroke:none;stroke-width:1.33333325"
     id="path9060"
     inkscape:connector-curvature="0" /><path
     d="m 174.7864,98.778673 c 0,0 22.64667,38.321337 15.01067,48.254667 -1.15867,2.38133 29.664,-10.51467 29.664,-10.51467 l 12.628,-9.48533 -40.96534,-33.444 z"
     style="fill:none;stroke:#b1b372;stroke-width:0.66666663;stroke-linecap:butt;stroke-linejoin:miter;stroke-miterlimit:10;stroke-dasharray:none;stroke-opacity:1"
     id="path9064"
     inkscape:connector-curvature="0" /><path
     d="m 175.30853,99.851607 c 0,0 28.46533,34.224003 22.50667,45.248003 -2.052,3.64533 27.608,-15.10534 27.608,-15.10534 l 10.95733,-11.37733 -45.76667,-26.491999 z"
     style="fill:#fffee8;fill-opacity:1;fill-rule:nonzero;stroke:none;stroke-width:1.33333325"
     id="path9068"
     inkscape:connector-curvature="0" /><path
     d="m 175.30853,99.851607 c 0,0 28.46533,34.224003 22.50667,45.248003 -2.052,3.64533 27.608,-15.10534 27.608,-15.10534 l 10.95733,-11.37733 -45.76667,-26.491999 z"
     style="fill:none;stroke:#b1b372;stroke-width:0.66666663;stroke-linecap:butt;stroke-linejoin:miter;stroke-miterlimit:10;stroke-dasharray:none;stroke-opacity:1"
     id="path9072"
     inkscape:connector-curvature="0" /><path
     d="m 178.32426,101.59894 c 0,0 27.75067,31.84133 24.81467,44.024 -1.03734,2.02533 26.792,-16.51333 26.792,-16.51333 l 10.352,-11.92667 -47.07734,-24.090666 z"
     style="fill:#fffee8;fill-opacity:1;fill-rule:nonzero;stroke:none;stroke-width:1.33333325"
     id="path9076"
     inkscape:connector-curvature="0" /><path
     d="m 178.32426,101.59894 c 0,0 27.75067,31.84133 24.81467,44.024 -1.03734,2.02533 26.792,-16.51333 26.792,-16.51333 l 10.352,-11.92667 -47.07734,-24.090666 z"
     style="fill:none;stroke:#b1b372;stroke-width:0.66666663;stroke-linecap:butt;stroke-linejoin:miter;stroke-miterlimit:10;stroke-dasharray:none;stroke-opacity:1"
     id="path9080"
     inkscape:connector-curvature="0" /><path
     d="m 258.18359,40.552008 c 0,0 46.05867,4.104 53.22933,38.070666 0.82667,3.912 -91.72,60.310666 -89.28,62.390666 2.44,2.07733 -17.11733,-36.488 -48.50266,-40.2 -4.416,-0.52133 84.55333,-60.261332 84.55333,-60.261332"
     style="fill:#4da031;fill-opacity:1;fill-rule:nonzero;stroke:none;stroke-width:1.33333325"
     id="path9084"
     inkscape:connector-curvature="0" /><path
     d="m 258.18359,40.552008 c 0,0 46.05867,4.104 53.22933,38.070666 0.82667,3.912 -91.72,60.310666 -89.28,62.390666 2.44,2.07733 -17.11733,-36.488 -48.50266,-40.2 -4.416,-0.52133 84.55333,-60.261332 84.55333,-60.261332 z"
     style="fill:none;stroke:#1d6434;stroke-width:1;stroke-linecap:butt;stroke-linejoin:miter;stroke-miterlimit:10;stroke-dasharray:none;stroke-opacity:1"
     id="path9088"
     inkscape:connector-curvature="0" /><path
     d="m 159.15626,79.411474 c 0,0 -23.98667,-9.104 -58.584,10.972 -34.598664,20.074666 113.488,-77.875998 113.488,-77.875998 0,0 26.91333,1.393333 26.116,8.135999 -0.56134,4.752 -81.02,58.767999 -81.02,58.767999"
     style="fill:#4da031;fill-opacity:1;fill-rule:nonzero;stroke:none;stroke-width:1.33333325"
     id="path9092"
     inkscape:connector-curvature="0" /><path
     d="m 159.15626,79.411474 c 0,0 -23.98667,-9.104 -58.584,10.972 -34.598664,20.074666 113.488,-77.875998 113.488,-77.875998 0,0 26.91333,1.393333 26.116,8.135999 -0.56134,4.752 -81.02,58.767999 -81.02,58.767999 z"
     style="fill:none;stroke:#1d6434;stroke-width:1;stroke-linecap:butt;stroke-linejoin:miter;stroke-miterlimit:10;stroke-dasharray:none;stroke-opacity:1"
     id="path9096"
     inkscape:connector-curvature="0" /><path
     d="M 176.05733,99.18614 C 170.24266,103.39681 154.992,82.340807 160.80666,78.130141 L 240.176,20.643475 c 5.81333,-4.210666 21.06533,16.845333 15.24799,21.057333 z"
     style="fill:#27963c;fill-opacity:1;fill-rule:nonzero;stroke:none;stroke-width:1.33333325"
     id="path9100"
     inkscape:connector-curvature="0" /><path
     d="M 176.05733,99.18614 C 170.24266,103.39681 154.992,82.340807 160.80666,78.130141 L 240.176,20.643475 c 5.81333,-4.210666 21.06533,16.845333 15.24799,21.057333 z"
     style="fill:none;stroke:#1d6434;stroke-width:1;stroke-linecap:butt;stroke-linejoin:miter;stroke-miterlimit:10;stroke-dasharray:none;stroke-opacity:1"
     id="path9104"
     inkscape:connector-curvature="0" /><path
     d="m 360.49612,237.08467 c 0,1.964 -1.89067,3.55467 -4.22133,3.55467 h -1.33334 c -2.332,0 -4.22266,-1.59067 -4.22266,-3.55467 0,-1.964 1.89066,-3.556 4.22266,-3.556 h 1.33334 c 2.33066,0 4.22133,1.592 4.22133,3.556"
     style="fill:#bf1b2c;fill-opacity:1;fill-rule:nonzero;stroke:none;stroke-width:1.33333325"
     id="path9108"
     inkscape:connector-curvature="0" /><path
     d="m 360.49612,237.08467 c 0,1.964 -1.89067,3.55467 -4.22133,3.55467 h -1.33334 c -2.332,0 -4.22266,-1.59067 -4.22266,-3.55467 0,-1.964 1.89066,-3.556 4.22266,-3.556 h 1.33334 c 2.33066,0 4.22133,1.592 4.22133,3.556 z"
     style="fill:none;stroke:#ab1727;stroke-width:1.33333325;stroke-linecap:butt;stroke-linejoin:miter;stroke-miterlimit:10;stroke-dasharray:none;stroke-opacity:1"
     id="path9112"
     inkscape:connector-curvature="0" /><path
     d="m 143.17453,251.13934 c 0,0 -24.376,-5.59067 -31.772,0.74 -3.83067,-4.29467 4.116,2.96133 6.88533,-15.61467 z"
     style="fill:#a21625;fill-opacity:1;fill-rule:nonzero;stroke:none;stroke-width:1.33333325"
     id="path9116"
     inkscape:connector-curvature="0" /><path
     d="m 115.88666,242.25907 c -3.68,11.81733 -8.292,22.62 -23.527999,16.148 -15.561333,-6.60667 -11.470667,-13.62133 -7.794667,-25.44 3.677333,-11.81733 11.793333,-20.252 21.109336,-17.35333 9.31466,2.89866 16.65066,11.18933 10.21333,26.64533"
     style="fill:#a21625;fill-opacity:1;fill-rule:nonzero;stroke:none;stroke-width:1.33333325"
     id="path9120"
     inkscape:connector-curvature="0" /><path
     d="m 115.88666,242.25907 c -3.68,11.81733 -8.292,22.62 -23.527999,16.148 -15.561333,-6.60667 -11.470667,-13.62133 -7.794667,-25.44 3.677333,-11.81733 11.793333,-20.252 21.109336,-17.35333 9.31466,2.89866 16.65066,11.18933 10.21333,26.64533 z"
     style="fill:none;stroke:#ab1727;stroke-width:1.33333325;stroke-linecap:butt;stroke-linejoin:miter;stroke-miterlimit:10;stroke-dasharray:none;stroke-opacity:1"
     id="path9124"
     inkscape:connector-curvature="0" /><path
     d="m 171.29946,252.19134 c -0.84667,9.972 -2.83467,19.28533 -19.132,16.564 -16.648,-2.77733 -14.292,-9.00133 -13.44933,-18.97333 0.84533,-9.97067 6.78266,-17.96 16.50533,-17.13734 9.72,0.82267 18.76533,6.244 16.076,19.54667"
     style="fill:#961421;fill-opacity:1;fill-rule:nonzero;stroke:none;stroke-width:1.33333325"
     id="path9128"
     inkscape:connector-curvature="0" /><path
     d="m 171.29946,252.19134 c -0.84667,9.972 -2.83467,19.28533 -19.132,16.564 -16.648,-2.77733 -14.292,-9.00133 -13.44933,-18.97333 0.84533,-9.97067 6.78266,-17.96 16.50533,-17.13734 9.72,0.82267 18.76533,6.244 16.076,19.54667 z"
     style="fill:none;stroke:#ab1727;stroke-width:1.33333325;stroke-linecap:butt;stroke-linejoin:miter;stroke-miterlimit:10;stroke-dasharray:none;stroke-opacity:1"
     id="path9132"
     inkscape:connector-curvature="0" /><path
     d="m 162.40626,241.75387 c -1.59867,7.94 -8.74933,13.19733 -15.968,11.744 0,0 -12.14,-5.84667 -16.768,-6.77867 -4.684,-0.944 -20.48267,-0.72666 -20.48267,-0.72666 -7.21733,-1.45467 -11.773328,-9.07067 -10.173328,-17.01067 1.598668,-7.94133 8.749328,-13.2 15.966668,-11.74533 0,0 15.012,1.43733 19.91333,2.42666 4.412,0.888 17.33867,5.07867 17.33867,5.07867 7.21733,1.45467 11.77333,9.07067 10.17333,17.012"
     style="fill:#bf1b2c;fill-opacity:1;fill-rule:nonzero;stroke:none;stroke-width:1.33333325"
     id="path9136"
     inkscape:connector-curvature="0" /><path
     d="m 162.40626,241.75387 c -1.59867,7.94 -8.74933,13.19733 -15.968,11.744 0,0 -12.14,-5.84667 -16.768,-6.77867 -4.684,-0.944 -20.48267,-0.72666 -20.48267,-0.72666 -7.21733,-1.45467 -11.773328,-9.07067 -10.173328,-17.01067 1.598668,-7.94133 8.749328,-13.2 15.966668,-11.74533 0,0 15.012,1.43733 19.91333,2.42666 4.412,0.888 17.33867,5.07867 17.33867,5.07867 7.21733,1.45467 11.77333,9.07067 10.17333,17.012 z"
     style="fill:none;stroke:#ab1727;stroke-width:1.33333325;stroke-linecap:butt;stroke-linejoin:miter;stroke-miterlimit:10;stroke-dasharray:none;stroke-opacity:1"
     id="path9140"
     inkscape:connector-curvature="0" /><path
     d="m 175.69786,249.45707 c -1.072,12.65733 -3.276,24.50667 -19.54267,21.42667 -16.616,-3.14267 -14.116,-11.08267 -13.044,-23.74 1.07067,-12.65867 7.20134,-22.91867 16.924,-22.096 9.72,0.82533 18.65734,7.49066 15.66267,24.40933"
     style="fill:#bf1b2c;fill-opacity:1;fill-rule:nonzero;stroke:none;stroke-width:1.33333325"
     id="path9144"
     inkscape:connector-curvature="0" /><path
     d="m 175.69786,249.45707 c -1.072,12.65733 -3.276,24.50667 -19.54267,21.42667 -16.616,-3.14267 -14.116,-11.08267 -13.044,-23.74 1.07067,-12.65867 7.20134,-22.91867 16.924,-22.096 9.72,0.82533 18.65734,7.49066 15.66267,24.40933 z"
     style="fill:none;stroke:#ab1727;stroke-width:1.33333325;stroke-linecap:butt;stroke-linejoin:miter;stroke-miterlimit:10;stroke-dasharray:none;stroke-opacity:1"
     id="path9148"
     inkscape:connector-curvature="0" /><path
     d="m 119.47,240.97 c -3.224,12.288 -7.424,23.584 -22.923999,17.76533 -15.832,-5.944 -12.009333,-13.33866 -8.785334,-25.62533 3.225334,-12.28533 11.018667,-21.34533 20.458663,-18.87067 9.436,2.47867 17.1,10.576 11.25067,26.73067"
     style="fill:#bf1b2c;fill-opacity:1;fill-rule:nonzero;stroke:none;stroke-width:1.33333325"
     id="path9152"
     inkscape:connector-curvature="0" /><path
     d="m 119.47,240.97 c -3.224,12.288 -7.424,23.584 -22.923999,17.76533 -15.832,-5.944 -12.009333,-13.33866 -8.785334,-25.62533 3.225334,-12.28533 11.018667,-21.34533 20.458663,-18.87067 9.436,2.47867 17.1,10.576 11.25067,26.73067 z"
     style="fill:none;stroke:#ab1727;stroke-width:1.33333325;stroke-linecap:butt;stroke-linejoin:miter;stroke-miterlimit:10;stroke-dasharray:none;stroke-opacity:1"
     id="path9156"
     inkscape:connector-curvature="0" /><path
     d="m 164.67186,237.3112 -6.584,-1.04667 0.90933,-5.70666 6.58534,1.048 z"
     style="fill:#656263;fill-opacity:1;fill-rule:nonzero;stroke:none;stroke-width:1.33333325"
     id="path9160"
     inkscape:connector-curvature="0" /><path
     d="m 164.67186,237.3112 -6.584,-1.04667 0.90933,-5.70666 6.58534,1.048 z"
     style="fill:none;stroke:#4f4c4d;stroke-width:0.66666663;stroke-linecap:butt;stroke-linejoin:miter;stroke-miterlimit:10;stroke-dasharray:none;stroke-opacity:1"
     id="path9164"
     inkscape:connector-curvature="0" /><path
     d="m 171.82026,244.526 c -0.31733,1.99867 -2.33067,3.34133 -4.49733,2.996 -2.168,-0.34533 -3.66534,-2.24533 -3.348,-4.24533 0.31866,-2 2.33333,-3.34134 4.5,-2.99734 2.16666,0.34534 3.664,2.248 3.34533,4.24667"
     style="fill:#656263;fill-opacity:1;fill-rule:nonzero;stroke:none;stroke-width:1.33333325"
     id="path9168"
     inkscape:connector-curvature="0" /><path
     d="m 171.82026,244.526 c -0.31733,1.99867 -2.33067,3.34133 -4.49733,2.996 -2.168,-0.34533 -3.66534,-2.24533 -3.348,-4.24533 0.31866,-2 2.33333,-3.34134 4.5,-2.99734 2.16666,0.34534 3.664,2.248 3.34533,4.24667 z"
     style="fill:none;stroke:#4f4c4d;stroke-width:0.66666663;stroke-linecap:butt;stroke-linejoin:miter;stroke-miterlimit:10;stroke-dasharray:none;stroke-opacity:1"
     id="path9172"
     inkscape:connector-curvature="0" /><path
     d="m 148.47,244.55334 5.22533,-6.852 2.42667,8.26267 z"
     style="fill:#656263;fill-opacity:1;fill-rule:nonzero;stroke:none;stroke-width:1.33333325"
     id="path9176"
     inkscape:connector-curvature="0" /><path
     d="m 148.47,244.55334 5.22533,-6.852 2.42667,8.26267 z"
     style="fill:none;stroke:#4f4c4d;stroke-width:0.66666663;stroke-linecap:butt;stroke-linejoin:miter;stroke-miterlimit:10;stroke-dasharray:none;stroke-opacity:1"
     id="path9180"
     inkscape:connector-curvature="0" /><path
     d="m 101.086,246.21227 -3.686667,-1.09333 3.318667,-11.18267 3.68667,1.096 z"
     style="fill:#656263;fill-opacity:1;fill-rule:nonzero;stroke:none;stroke-width:1.33333325"
     id="path9184"
     inkscape:connector-curvature="0" /><path
     d="m 101.086,246.21227 -3.686667,-1.09333 3.318667,-11.18267 3.68667,1.096 z"
     style="fill:none;stroke:#4f4c4d;stroke-width:0.66666663;stroke-linecap:butt;stroke-linejoin:miter;stroke-miterlimit:10;stroke-dasharray:none;stroke-opacity:1"
     id="path9188"
     inkscape:connector-curvature="0" /><path
     d="m 105.82946,243.09107 -10.702666,-3.17867 1.058666,-3.568 10.704,3.17734 z"
     style="fill:#656263;fill-opacity:1;fill-rule:nonzero;stroke:none;stroke-width:1.33333325"
     id="path9192"
     inkscape:connector-curvature="0" /><path
     d="m 105.82946,243.09107 -10.702666,-3.17867 1.058666,-3.568 10.704,3.17734 z"
     style="fill:none;stroke:#4f4c4d;stroke-width:0.66666663;stroke-linecap:butt;stroke-linejoin:miter;stroke-miterlimit:10;stroke-dasharray:none;stroke-opacity:1"
     id="path9196"
     inkscape:connector-curvature="0" /><path
     d="m 131.4544,223.50907 c -0.0947,0.53867 -0.61467,0.89733 -1.164,0.80133 l -7.20667,-1.25866 c -0.548,-0.0947 -0.91733,-0.61067 -0.824,-1.14934 0.096,-0.53733 0.616,-0.896 1.16534,-0.80133 l 7.20666,1.26 c 0.54934,0.096 0.916,0.60933 0.82267,1.148"
     style="fill:#656263;fill-opacity:1;fill-rule:nonzero;stroke:none;stroke-width:1.33333325"
     id="path9200"
     inkscape:connector-curvature="0" /><path
     d="m 131.4544,223.50907 c -0.0947,0.53867 -0.61467,0.89733 -1.164,0.80133 l -7.20667,-1.25866 c -0.548,-0.0947 -0.91733,-0.61067 -0.824,-1.14934 0.096,-0.53733 0.616,-0.896 1.16534,-0.80133 l 7.20666,1.26 c 0.54934,0.096 0.916,0.60933 0.82267,1.148 z"
     style="fill:none;stroke:#4f4c4d;stroke-width:0.66666663;stroke-linecap:butt;stroke-linejoin:miter;stroke-miterlimit:10;stroke-dasharray:none;stroke-opacity:1"
     id="path9204"
     inkscape:connector-curvature="0" /><path
     d="m 148,227.16534 c -0.132,0.53067 -0.676,0.85467 -1.21733,0.72133 L 139.68,226.14001 c -0.54133,-0.13334 -0.87467,-0.66934 -0.744,-1.20134 0.13067,-0.53066 0.67467,-0.85466 1.216,-0.72133 l 7.10267,1.748 c 0.544,0.132 0.87733,0.66933 0.74533,1.2"
     style="fill:#656263;fill-opacity:1;fill-rule:nonzero;stroke:none;stroke-width:1.33333325"
     id="path9208"
     inkscape:connector-curvature="0" /><path
     d="m 148,227.16534 c -0.132,0.53067 -0.676,0.85467 -1.21733,0.72133 L 139.68,226.14001 c -0.54133,-0.13334 -0.87467,-0.66934 -0.744,-1.20134 0.13067,-0.53066 0.67467,-0.85466 1.216,-0.72133 l 7.10267,1.748 c 0.544,0.132 0.87733,0.66933 0.74533,1.2 z"
     style="fill:none;stroke:#4f4c4d;stroke-width:0.66666663;stroke-linecap:butt;stroke-linejoin:miter;stroke-miterlimit:10;stroke-dasharray:none;stroke-opacity:1"
     id="path9212"
     inkscape:connector-curvature="0" /><path
     d="m 349.11066,262.31374 c -24.192,5.66133 -44.43867,7.52267 -45.22667,4.15867 -0.78666,-3.364 18.18534,-10.68267 42.376,-16.344 24.19067,-5.66134 44.43734,-7.52267 45.22534,-4.15867 0.78666,3.36533 -18.18267,10.68267 -42.37467,16.344"
     style="fill:#37ab9c;fill-opacity:1;fill-rule:nonzero;stroke:none;stroke-width:1.33333325"
     id="path9216"
     inkscape:connector-curvature="0" /><path
     d="m 349.11066,262.31374 c -24.192,5.66133 -44.43867,7.52267 -45.22667,4.15867 -0.78666,-3.364 18.18534,-10.68267 42.376,-16.344 24.19067,-5.66134 44.43734,-7.52267 45.22534,-4.15867 0.78666,3.36533 -18.18267,10.68267 -42.37467,16.344 z"
     style="fill:none;stroke:#2c887c;stroke-width:1.33333325;stroke-linecap:butt;stroke-linejoin:miter;stroke-miterlimit:10;stroke-dasharray:none;stroke-opacity:1"
     id="path9220"
     inkscape:connector-curvature="0" /><path
     d="m 421.00386,236.5456 c 0,0 -32.81067,-12.052 -31.07467,5.97333 2.73734,1.944 1.21334,4.06267 1.73334,6.03467 13.59333,14.04267 29.34133,-12.008 29.34133,-12.008"
     style="fill:#6a4338;fill-opacity:1;fill-rule:nonzero;stroke:none;stroke-width:1.33333325"
     id="path9224"
     inkscape:connector-curvature="0" /><path
     d="m 421.00386,236.5456 c 0,0 -32.81067,-12.052 -31.07467,5.97333 2.73734,1.944 1.21334,4.06267 1.73334,6.03467 13.59333,14.04267 29.34133,-12.008 29.34133,-12.008 z"
     style="fill:none;stroke:#523930;stroke-width:1.33333325;stroke-linecap:butt;stroke-linejoin:miter;stroke-miterlimit:10;stroke-dasharray:none;stroke-opacity:1"
     id="path9228"
     inkscape:connector-curvature="0" /><path
     d="m 389.56506,241.2408 c 2.36267,-0.64 4.68667,7.91867 2.32267,8.56 l -11.00667,2.98667 c -1.18,0.32 0.0573,-2.35467 -0.52267,-4.49467 -0.58266,-2.14 -2.98266,-3.74533 -1.8,-4.06667 z"
     style="fill:#bdbcbc;fill-opacity:1;fill-rule:nonzero;stroke:none;stroke-width:1.33333325"
     id="path9232"
     inkscape:connector-curvature="0" /><path
     d="m 389.56506,241.2408 c 2.36267,-0.64 4.68667,7.91867 2.32267,8.56 l -11.00667,2.98667 c -1.18,0.32 0.0573,-2.35467 -0.52267,-4.49467 -0.58266,-2.14 -2.98266,-3.74533 -1.8,-4.06667 z"
     style="fill:none;stroke:#939192;stroke-width:1.33333325;stroke-linecap:butt;stroke-linejoin:miter;stroke-miterlimit:10;stroke-dasharray:none;stroke-opacity:1"
     id="path9236"
     inkscape:connector-curvature="0" /><g
     id="g9240"
     transform="matrix(1.3333333,0,0,-1.3333333,0,363.888)" /><g
     id="g9252"
     transform="matrix(1.3333333,0,0,-1.3333333,0,363.888)"><g
       clip-path="url(#clipPath9244)"
       id="g9250"
       style="opacity:0.50999499"><g
         transform="translate(294.3037,89.1475)"
         id="g9248"><path
           d="m 0,0 c 0.77,0.363 1.336,-3.523 -0.465,-4.012 l -8.443,-1.984 c -0.901,-0.244 -0.135,2.277 -0.358,3.096 -0.223,0.818 -1.199,1.533 -0.285,1.712 C -3.533,-2.107 0,0 0,0"
           style="fill:#656263;fill-opacity:1;fill-rule:nonzero;stroke:none"
           id="path9246"
           inkscape:connector-curvature="0" /></g></g></g><g
     id="g9256"
     transform="matrix(1.3333333,0,0,-1.3333333,0,363.888)" /><g
     id="g9268"
     transform="matrix(1.3333333,0,0,-1.3333333,0,363.888)"><g
       clip-path="url(#clipPath9260)"
       id="g9266"
       style="opacity:0.66999799"><g
         transform="translate(316.0117,95.6934)"
         id="g9264"><path
           d="m 0,0 c 0,0 -10.583,-18.643 -21.463,-10.208 0.841,2.147 -0.222,3.055 0.331,3.798 C -17.811,-1.944 -6.305,-8.248 0,0"
           style="fill:#52423b;fill-opacity:1;fill-rule:nonzero;stroke:none"
           id="path9262"
           inkscape:connector-curvature="0" /></g></g></g><g
     id="g9272"
     transform="matrix(1.3333333,0,0,-1.3333333,0,363.888)" /><g
     id="g9284"
     transform="matrix(1.3333333,0,0,-1.3333333,0,363.888)"><g
       clip-path="url(#clipPath9276)"
       id="g9282"
       style="opacity:0.5"><g
         transform="translate(284.0029,88.3242)"
         id="g9280"><path
           d="m 0,0 c 0,0 1.673,-0.269 1.129,-5.349 -20.344,-9.519 -61.659,-13.88 -56.88,-9.285 C -50.972,-10.038 2.596,-7.444 0,0"
           style="fill:#2c8967;fill-opacity:1;fill-rule:nonzero;stroke:none"
           id="path9278"
           inkscape:connector-curvature="0" /></g></g></g></svg>