<?xml version="1.0" encoding="UTF-8" standalone="no"?>
<!-- Created with Inkscape (http://www.inkscape.org/) -->

<svg
   xmlns:dc="http://purl.org/dc/elements/1.1/"
   xmlns:cc="http://creativecommons.org/ns#"
   xmlns:rdf="http://www.w3.org/1999/02/22-rdf-syntax-ns#"
   xmlns:svg="http://www.w3.org/2000/svg"
   xmlns="http://www.w3.org/2000/svg"
   xmlns:sodipodi="http://sodipodi.sourceforge.net/DTD/sodipodi-0.dtd"
   xmlns:inkscape="http://www.inkscape.org/namespaces/inkscape"
   version="1.1"
   id="svg9692"
   xml:space="preserve"
   width="394.276"
   height="296.80933"
   viewBox="0 0 394.276 296.80933"
   sodipodi:docname="sleep.svg"
   inkscape:version="0.92.2 5c3e80d, 2017-08-06"><metadata
     id="metadata9698"><rdf:RDF><cc:Work
         rdf:about=""><dc:format>image/svg+xml</dc:format><dc:type
           rdf:resource="http://purl.org/dc/dcmitype/StillImage" /><dc:title></dc:title></cc:Work></rdf:RDF></metadata><defs
     id="defs9696"><clipPath
       clipPathUnits="userSpaceOnUse"
       id="clipPath9708"><path
         d="M 0,222.607 H 295.707 V 0 H 0 Z"
         id="path9706"
         inkscape:connector-curvature="0" /></clipPath><clipPath
       clipPathUnits="userSpaceOnUse"
       id="clipPath9716"><path
         d="M 9,120.926 H 286.707 V 9 H 9 Z"
         id="path9714"
         inkscape:connector-curvature="0" /></clipPath><clipPath
       clipPathUnits="userSpaceOnUse"
       id="clipPath9740"><path
         d="M 160.224,213.09 H 280.715 V 129.395 H 160.224 Z"
         id="path9738"
         inkscape:connector-curvature="0" /></clipPath><clipPath
       clipPathUnits="userSpaceOnUse"
       id="clipPath9780"><path
         d="m 45.4453,105.51 h 6.7398 V 76.9897 h -6.7398 z"
         id="path9778"
         inkscape:connector-curvature="0" /></clipPath><clipPath
       clipPathUnits="userSpaceOnUse"
       id="clipPath9796"><path
         d="m 122.379,40.6597 h 5.577 V 20.3428 h -5.577 z"
         id="path9794"
         inkscape:connector-curvature="0" /></clipPath><clipPath
       clipPathUnits="userSpaceOnUse"
       id="clipPath9812"><path
         d="m 262.769,123.134 h 5.743 V 91.8545 h -5.743 z"
         id="path9810"
         inkscape:connector-curvature="0" /></clipPath><clipPath
       clipPathUnits="userSpaceOnUse"
       id="clipPath9856"><path
         d="M 42.9399,151.787 H 269.053 V 58.356 H 42.9399 Z"
         id="path9854"
         inkscape:connector-curvature="0" /></clipPath><clipPath
       clipPathUnits="userSpaceOnUse"
       id="clipPath9884"><path
         d="M 40.3198,142.193 H 239.915 V 37.8428 H 40.3198 Z"
         id="path9882"
         inkscape:connector-curvature="0" /></clipPath></defs><sodipodi:namedview
     pagecolor="#ffffff"
     bordercolor="#666666"
     borderopacity="1"
     objecttolerance="10"
     gridtolerance="10"
     guidetolerance="10"
     inkscape:pageopacity="0"
     inkscape:pageshadow="2"
     inkscape:window-width="640"
     inkscape:window-height="480"
     id="namedview9694"
     showgrid="false"
     inkscape:zoom="0.79512326"
     inkscape:cx="197.138"
     inkscape:cy="148.40466"
     inkscape:window-x="0"
     inkscape:window-y="0"
     inkscape:window-maximized="0"
     inkscape:current-layer="g9700" /><g
     id="g9700"
     inkscape:groupmode="layer"
     inkscape:label="Habits"
     transform="matrix(1.3333333,0,0,-1.3333333,0,296.80933)"><g
       id="g9702"><g
         id="g9704"
         clip-path="url(#clipPath9708)"><g
           id="g9710"><g
             id="g9712" /><g
             id="g9724"><g
               clip-path="url(#clipPath9716)"
               id="g9722"
               style="opacity:0.27000403"><g
                 transform="translate(286.6118,77.9556)"
                 id="g9720"><path
                   d="m 0,0 c 2.814,-30.057 -57.029,-60.238 -133.664,-67.414 -76.634,-7.174 -141.038,11.374 -143.853,41.43 -2.814,30.056 57.029,60.237 133.663,67.413 C -67.22,48.604 -2.814,30.056 0,0"
                   style="fill:#50ade5;fill-opacity:1;fill-rule:nonzero;stroke:none"
                   id="path9718"
                   inkscape:connector-curvature="0" /></g></g></g></g><g
           id="g9726"
           transform="translate(272.104,133.8511)"><path
             d="m 0,0 c -0.438,-2.856 -3.115,-4.816 -5.98,-4.377 l -101.156,15.481 c -2.864,0.438 -4.832,3.11 -4.394,5.966 l 8.837,57.747 c 0.437,2.856 3.114,4.816 5.979,4.378 L 4.441,63.713 c 2.865,-0.439 4.834,-3.109 4.398,-5.965 z"
             style="fill:#ffffff;fill-opacity:1;fill-rule:nonzero;stroke:none"
             id="path9728"
             inkscape:connector-curvature="0" /></g><g
           id="g9730"
           transform="translate(272.104,133.8511)"><path
             d="m 0,0 c -0.438,-2.856 -3.115,-4.816 -5.98,-4.377 l -101.156,15.481 c -2.864,0.438 -4.832,3.11 -4.394,5.966 l 8.837,57.747 c 0.437,2.856 3.114,4.816 5.979,4.378 L 4.441,63.713 c 2.865,-0.439 4.834,-3.109 4.398,-5.965 z"
             style="fill:none;stroke:#50ade5;stroke-width:1;stroke-linecap:butt;stroke-linejoin:miter;stroke-miterlimit:10;stroke-dasharray:none;stroke-opacity:1"
             id="path9732"
             inkscape:connector-curvature="0" /></g><g
           id="g9734"><g
             id="g9736" /><g
             id="g9748"><g
               clip-path="url(#clipPath9740)"
               id="g9746"
               style="opacity:0.55000299"><g
                 transform="translate(271.8149,133.834)"
                 id="g9744"><path
                   d="m 0,0 c -0.438,-2.856 -3.114,-4.816 -5.979,-4.378 l -101.156,15.482 c -2.864,0.439 -4.833,3.11 -4.395,5.966 l 8.837,57.747 c 0.437,2.856 3.115,4.816 5.979,4.378 L 4.441,63.712 c 2.867,-0.438 4.835,-3.109 4.398,-5.965 z"
                   style="fill:#50ade5;fill-opacity:1;fill-rule:nonzero;stroke:none"
                   id="path9742"
                   inkscape:connector-curvature="0" /></g></g></g></g><g
           id="g9750"
           transform="translate(127.8296,21.9946)"><path
             d="m 0,0 c 0,-2.051 -7.425,-2.051 -7.425,0 v 43.844 c 0,2.051 7.425,2.051 7.425,0 z"
             style="fill:#ffffff;fill-opacity:1;fill-rule:nonzero;stroke:none"
             id="path9752"
             inkscape:connector-curvature="0" /></g><g
           id="g9754"
           transform="translate(127.8296,21.9946)"><path
             d="m 0,0 c 0,-2.051 -7.425,-2.051 -7.425,0 v 43.844 c 0,2.051 7.425,2.051 7.425,0 z"
             style="fill:none;stroke:#50ade5;stroke-width:1;stroke-linecap:butt;stroke-linejoin:miter;stroke-miterlimit:10;stroke-dasharray:none;stroke-opacity:1"
             id="path9756"
             inkscape:connector-curvature="0" /></g><g
           id="g9758"
           transform="translate(266.9019,92.9438)"><path
             d="m 0,0 c -0.079,-1.624 -7.496,-1.267 -7.418,0.357 l 1.675,34.723 c 0.078,1.624 7.496,1.266 7.417,-0.358 z"
             style="fill:#ffffff;fill-opacity:1;fill-rule:nonzero;stroke:none"
             id="path9760"
             inkscape:connector-curvature="0" /></g><g
           id="g9762"
           transform="translate(266.9019,92.9438)"><path
             d="m 0,0 c -0.079,-1.624 -7.496,-1.267 -7.418,0.357 l 1.675,34.723 c 0.078,1.624 7.496,1.266 7.417,-0.358 z"
             style="fill:none;stroke:#50ade5;stroke-width:1;stroke-linecap:butt;stroke-linejoin:miter;stroke-miterlimit:10;stroke-dasharray:none;stroke-opacity:1"
             id="path9764"
             inkscape:connector-curvature="0" /></g><g
           id="g9766"
           transform="translate(51.9487,78.4595)"><path
             d="m 0,0 c 0.039,-1.787 -7.385,-1.953 -7.424,-0.166 l -0.852,38.22 c -0.041,1.787 7.382,1.952 7.422,0.165 z"
             style="fill:#ffffff;fill-opacity:1;fill-rule:nonzero;stroke:none"
             id="path9768"
             inkscape:connector-curvature="0" /></g><g
           id="g9770"
           transform="translate(51.9487,78.4595)"><path
             d="m 0,0 c 0.039,-1.787 -7.385,-1.953 -7.424,-0.166 l -0.852,38.22 c -0.041,1.787 7.382,1.952 7.422,0.165 z"
             style="fill:none;stroke:#50ade5;stroke-width:1;stroke-linecap:butt;stroke-linejoin:miter;stroke-miterlimit:10;stroke-dasharray:none;stroke-opacity:1"
             id="path9772"
             inkscape:connector-curvature="0" /></g><g
           id="g9774"><g
             id="g9776" /><g
             id="g9788"><g
               clip-path="url(#clipPath9780)"
               id="g9786"
               style="opacity:0.58000201"><g
                 transform="translate(52.1851,78.5903)"
                 id="g9784"><path
                   d="m 0,0 c 0.028,-1.261 -4.236,-2.286 -4.266,-1.025 0,0 1.668,18.045 -2.356,26.873 -1.04,2.279 5.146,0.482 5.185,-1.297 z"
                   style="fill:#50ade5;fill-opacity:1;fill-rule:nonzero;stroke:none"
                   id="path9782"
                   inkscape:connector-curvature="0" /></g></g></g></g><g
           id="g9790"><g
             id="g9792" /><g
             id="g9804"><g
               clip-path="url(#clipPath9796)"
               id="g9802"
               style="opacity:0.58000201"><g
                 transform="translate(127.4888,20.9907)"
                 id="g9800"><path
                   d="m 0,0 c -0.016,-0.629 -2.649,-0.93 -2.634,-0.301 0,0 1.679,14.21 -2.446,19.514 -0.501,0.642 5.568,0.644 5.547,-0.242 z"
                   style="fill:#50ade5;fill-opacity:1;fill-rule:nonzero;stroke:none"
                   id="path9798"
                   inkscape:connector-curvature="0" /></g></g></g></g><g
           id="g9806"><g
             id="g9808" /><g
             id="g9820"><g
               clip-path="url(#clipPath9812)"
               id="g9818"
               style="opacity:0.58000201"><g
                 transform="translate(266.27,92.7915)"
                 id="g9816"><path
                   d="m 0,0 c -0.074,-0.989 -3.533,-1.335 -3.459,-0.346 0,0 2.446,20.479 -0.029,28.494 -0.331,1.071 5.832,3.12 5.728,1.723 z"
                   style="fill:#50ade5;fill-opacity:1;fill-rule:nonzero;stroke:none"
                   id="path9814"
                   inkscape:connector-curvature="0" /></g></g></g></g><g
           id="g9822"
           transform="translate(267.5073,133.8511)"><path
             d="m 0,0 c -0.438,-2.856 -3.021,-4.831 -5.771,-4.409 l -97.082,14.858 c -2.75,0.421 -4.625,3.077 -4.187,5.933 l 8.838,57.748 c 0.438,2.856 3.021,4.829 5.769,4.409 L 4.65,63.681 C 7.399,63.26 9.274,60.604 8.839,57.748 Z"
             style="fill:#ffffff;fill-opacity:1;fill-rule:nonzero;stroke:none"
             id="path9824"
             inkscape:connector-curvature="0" /></g><g
           id="g9826"
           transform="translate(267.5073,133.8511)"><path
             d="m 0,0 c -0.438,-2.856 -3.021,-4.831 -5.771,-4.409 l -97.082,14.858 c -2.75,0.421 -4.625,3.077 -4.187,5.933 l 8.838,57.748 c 0.438,2.856 3.021,4.829 5.769,4.409 L 4.65,63.681 C 7.399,63.26 9.274,60.604 8.839,57.748 Z"
             style="fill:none;stroke:#50ade5;stroke-width:1;stroke-linecap:butt;stroke-linejoin:miter;stroke-miterlimit:10;stroke-dasharray:none;stroke-opacity:1"
             id="path9828"
             inkscape:connector-curvature="0" /></g><g
           id="g9830"
           transform="translate(160.5737,150.9214)"><path
             d="m 0,0 -117.604,-30.807 77.79,-61.878 147.444,71.424 z"
             style="fill:#ffffff;fill-opacity:1;fill-rule:nonzero;stroke:none"
             id="path9832"
             inkscape:connector-curvature="0" /></g><g
           id="g9834"
           transform="translate(160.5737,150.9214)"><path
             d="m 0,0 -117.604,-30.807 77.79,-61.878 147.444,71.424 z"
             style="fill:none;stroke:#50ade5;stroke-width:1;stroke-linecap:butt;stroke-linejoin:miter;stroke-miterlimit:10;stroke-dasharray:none;stroke-opacity:1"
             id="path9836"
             inkscape:connector-curvature="0" /></g><g
           id="g9838"
           transform="translate(120.7593,58.2368)"><path
             d="m 0,0 v -9.9 l -77.79,64.352 v 7.425 z"
             style="fill:#ffffff;fill-opacity:1;fill-rule:nonzero;stroke:none"
             id="path9840"
             inkscape:connector-curvature="0" /></g><g
           id="g9842"
           transform="translate(120.7593,58.2368)"><path
             d="m 0,0 v -9.9 l -77.79,64.352 v 7.425 z"
             style="fill:none;stroke:#50ade5;stroke-width:1;stroke-linecap:butt;stroke-linejoin:miter;stroke-miterlimit:10;stroke-dasharray:none;stroke-opacity:1"
             id="path9844"
             inkscape:connector-curvature="0" /></g><g
           id="g9846"
           transform="translate(120.7593,48.3364)"><path
             d="m 0,0 148.151,74.96 2.828,8.132 L 0,9.9"
             style="fill:#ffffff;fill-opacity:1;fill-rule:nonzero;stroke:#50ade5;stroke-width:1;stroke-linecap:butt;stroke-linejoin:miter;stroke-miterlimit:10;stroke-dasharray:none;stroke-opacity:1"
             id="path9848"
             inkscape:connector-curvature="0" /></g><g
           id="g9850"><g
             id="g9852" /><g
             id="g9868"><g
               clip-path="url(#clipPath9856)"
               id="g9866"
               style="opacity:0.63999897"><g
                 transform="translate(160.7104,151.2744)"
                 id="g9860"><path
                   d="m 0,0 -116.681,-30.689 77.179,-61.642 146.288,71.152 z"
                   style="fill:#50ade5;fill-opacity:1;fill-rule:nonzero;stroke:none"
                   id="path9858"
                   inkscape:connector-curvature="0" /></g><g
                 transform="translate(160.7104,151.2744)"
                 id="g9864"><path
                   d="m 0,0 -116.681,-30.689 77.179,-61.642 146.288,71.152 z"
                   style="fill:none;stroke:#50ade5;stroke-width:1;stroke-linecap:butt;stroke-linejoin:miter;stroke-miterlimit:10;stroke-dasharray:none;stroke-opacity:1"
                   id="path9862"
                   inkscape:connector-curvature="0" /></g></g></g></g><g
           id="g9870"
           transform="translate(120.4048,141.6826)"><path
             d="m 0,0 c 0,0 -77.436,-15.558 -78.85,-18.74 -1.414,-3.182 -0.353,-15.204 -0.353,-15.204 l 76.021,-66.474 c 0,0 13.789,-3.536 14.85,-2.829 1.061,0.707 107.137,50.916 107.137,50.916 0,0 1.808,3.225 -5.304,7.78 C 95.096,-32.767 49.476,-10.456 0,0"
             style="fill:#ffffff;fill-opacity:1;fill-rule:nonzero;stroke:none"
             id="path9872"
             inkscape:connector-curvature="0" /></g><g
           id="g9874"
           transform="translate(120.4048,141.6826)"><path
             d="m 0,0 c 0,0 -77.436,-15.558 -78.85,-18.74 -1.414,-3.182 -0.353,-15.204 -0.353,-15.204 l 76.021,-66.474 c 0,0 13.789,-3.536 14.85,-2.829 1.061,0.707 107.137,50.916 107.137,50.916 0,0 1.808,3.225 -5.304,7.78 C 95.096,-32.767 49.476,-10.456 0,0 Z"
             style="fill:none;stroke:#50ade5;stroke-width:1;stroke-linecap:butt;stroke-linejoin:miter;stroke-miterlimit:10;stroke-dasharray:none;stroke-opacity:1"
             id="path9876"
             inkscape:connector-curvature="0" /></g><g
           id="g9878"><g
             id="g9880" /><g
             id="g9896"><g
               clip-path="url(#clipPath9884)"
               id="g9894"
               style="opacity:0.66000402"><g
                 transform="translate(120.4048,141.6826)"
                 id="g9888"><path
                   d="m 0,0 c 0,0 -77.436,-15.558 -78.85,-18.74 -1.414,-3.182 -0.353,-15.204 -0.353,-15.204 l 76.021,-66.474 c 0,0 13.789,-3.536 14.85,-2.829 1.061,0.707 107.137,50.916 107.137,50.916 0,0 1.808,3.225 -5.304,7.78 C 95.096,-32.767 49.476,-10.456 0,0"
                   style="fill:#50ade5;fill-opacity:1;fill-rule:nonzero;stroke:none"
                   id="path9886"
                   inkscape:connector-curvature="0" /></g><g
                 transform="translate(120.4048,141.6826)"
                 id="g9892"><path
                   d="m 0,0 c 0,0 -77.436,-15.558 -78.85,-18.74 -1.414,-3.182 -0.353,-15.204 -0.353,-15.204 l 76.021,-66.474 c 0,0 13.789,-3.536 14.85,-2.829 1.061,0.707 107.137,50.916 107.137,50.916 0,0 1.808,3.225 -5.304,7.78 C 95.096,-32.767 49.476,-10.456 0,0 Z"
                   style="fill:none;stroke:#50ade5;stroke-width:1;stroke-linecap:butt;stroke-linejoin:miter;stroke-miterlimit:10;stroke-dasharray:none;stroke-opacity:1"
                   id="path9890"
                   inkscape:connector-curvature="0" /></g></g></g></g><g
           id="g9898"
           transform="translate(146.2163,151.2295)"><path
             d="m 0,0 c 0,0 95.469,-15.558 103.601,-36.065 8.131,-20.508 2.474,-20.154 2.474,-20.154 l -10.606,-7.426 -11.316,9.193 c 0,0 -96.882,42.784 -107.843,44.198 C -34.651,-8.84 -1.768,-0.354 0,0"
             style="fill:#ffffff;fill-opacity:1;fill-rule:nonzero;stroke:none"
             id="path9900"
             inkscape:connector-curvature="0" /></g><g
           id="g9902"
           transform="translate(146.2163,151.2295)"><path
             d="m 0,0 c 0,0 95.469,-15.558 103.601,-36.065 8.131,-20.508 2.474,-20.154 2.474,-20.154 l -10.606,-7.426 -11.316,9.193 c 0,0 -96.882,42.784 -107.843,44.198 C -34.651,-8.84 -1.768,-0.354 0,0 Z"
             style="fill:none;stroke:#50ade5;stroke-width:1;stroke-linecap:butt;stroke-linejoin:miter;stroke-miterlimit:10;stroke-dasharray:none;stroke-opacity:1"
             id="path9904"
             inkscape:connector-curvature="0" /></g><g
           id="g9906"
           transform="translate(172.1646,202.3433)"><path
             d="m 0,0 3.488,-4.286 c 0,0 65.345,-11.473 72.869,-20.094 7.527,-8.62 7.14,2.177 7.467,-0.004 1.193,-7.938 -3.379,-9.965 -3.379,-9.965 0,0 0.157,-38.43 -6.445,-41.152 -6.604,-2.721 -0.854,-3.022 -1.023,-4.059 -0.394,-2.411 -8.08,1.23 -8.08,1.23 0,0 -65.383,14.125 -68.783,19.397 -3.401,5.272 -4.278,1.644 -5.586,2.486 -1.457,0.94 1.803,7.787 1.803,7.787 0,0 4.828,41.628 5.954,41.859 C -0.588,-6.571 -0.157,-1.756 0,0"
             style="fill:#ffffff;fill-opacity:1;fill-rule:nonzero;stroke:#50ade5;stroke-width:1;stroke-linecap:butt;stroke-linejoin:miter;stroke-miterlimit:10;stroke-dasharray:none;stroke-opacity:1"
             id="path9908"
             inkscape:connector-curvature="0" /></g><g
           id="g9910"
           transform="translate(41.1392,192.2402)"><path
             d="m 0,0 c 3,-0.104 5.552,-1.24 7.656,-3.406 2.083,-2.167 3.125,-4.761 3.125,-7.782 v -4.593 H 1.844 v 4.593 c 0,0.605 -0.219,1.125 -0.656,1.563 -0.438,0.437 -0.969,0.656 -1.594,0.656 -0.542,0 -1.011,-0.167 -1.407,-0.5 -0.062,-0.042 -0.115,-0.094 -0.156,-0.156 H -2 C -2.042,-9.667 -2.084,-9.719 -2.125,-9.781 H -2.156 C -2.198,-9.844 -2.229,-9.896 -2.25,-9.938 v -0.031 h -0.031 c -0.042,-0.062 -0.073,-0.114 -0.094,-0.156 0.021,0.021 0.021,0.01 0,-0.031 -0.042,-0.063 -0.073,-0.115 -0.094,-0.157 l -0.031,-0.093 -0.031,-0.125 -0.032,-0.125 -0.031,-0.094 c 0,-0.021 -0.01,-0.063 -0.031,-0.125 v -0.094 -0.219 -3.656 c 0,-0.625 0.219,-1.156 0.656,-1.594 0.438,-0.416 0.958,-0.625 1.563,-0.625 L 0,-17.094 c 3,-0.104 5.552,-1.239 7.656,-3.406 2.083,-2.167 3.125,-4.761 3.125,-7.781 0,-3.084 -1.084,-5.719 -3.25,-7.907 -2.187,-2.187 -4.834,-3.281 -7.937,-3.281 h -11.188 v 8.969 h 11.188 c 0.625,0 1.156,0.219 1.594,0.656 0.437,0.438 0.656,0.958 0.656,1.563 0,0.625 -0.219,1.156 -0.656,1.593 -0.438,0.438 -0.969,0.657 -1.594,0.657 h -0.438 c -2.979,0.125 -5.51,1.26 -7.594,3.406 -2.083,2.167 -3.135,4.75 -3.156,7.75 v 3.719 c 0.021,3.083 1.115,5.708 3.281,7.875 2.167,2.166 4.792,3.26 7.875,3.281 z"
             style="fill:#231f20;fill-opacity:1;fill-rule:nonzero;stroke:none"
             id="path9912"
             inkscape:connector-curvature="0" /></g><g
           id="g9914"
           transform="translate(74.2017,161.709)"><path
             d="m 0,0 v -8.969 h -19.719 v 38.594 h 8.969 L -10.75,0 Z"
             style="fill:#231f20;fill-opacity:1;fill-rule:nonzero;stroke:none"
             id="path9916"
             inkscape:connector-curvature="0" /></g><g
           id="g9918"
           transform="translate(85.1392,182.3652)"><path
             d="m 0,0 v -7.188 h 8.969 v -8.968 H 0 v -4.5 h 10.75 v -8.969 H -8.969 V 8.969 H 10.75 V 0 Z"
             style="fill:#231f20;fill-opacity:1;fill-rule:nonzero;stroke:none"
             id="path9920"
             inkscape:connector-curvature="0" /></g><g
           id="g9922"
           transform="translate(107.6704,182.3652)"><path
             d="m 0,0 v -7.188 h 8.969 v -8.968 H 0 v -4.5 h 10.75 v -8.969 H -8.969 V 8.969 H 10.75 V 0 Z"
             style="fill:#231f20;fill-opacity:1;fill-rule:nonzero;stroke:none"
             id="path9924"
             inkscape:connector-curvature="0" /></g><g
           id="g9926"
           transform="translate(134.9517,180.1152)"><path
             d="M 0,0 C 0,0.625 -0.219,1.156 -0.656,1.594 -1.094,2.031 -1.625,2.25 -2.25,2.25 H -4.5 v -7.188 h 2.25 c 0.625,0 1.156,0.219 1.594,0.657 C -0.219,-3.844 0,-3.313 0,-2.688 Z m 8.938,-2.75 c -0.022,-3.063 -1.116,-5.688 -3.282,-7.875 -2.167,-2.167 -4.792,-3.25 -7.875,-3.25 H -4.5 v -13.438 h -8.938 V 11.188 H -2.219 C 0.864,11.167 3.489,10.073 5.656,7.906 7.822,5.739 8.916,3.114 8.938,0.031 Z"
             style="fill:#231f20;fill-opacity:1;fill-rule:nonzero;stroke:none"
             id="path9928"
             inkscape:connector-curvature="0" /></g></g></g></g></svg>