<?xml version="1.0" encoding="UTF-8" standalone="no"?>
<!-- Created with Inkscape (http://www.inkscape.org/) -->

<svg
   xmlns:dc="http://purl.org/dc/elements/1.1/"
   xmlns:cc="http://creativecommons.org/ns#"
   xmlns:rdf="http://www.w3.org/1999/02/22-rdf-syntax-ns#"
   xmlns:svg="http://www.w3.org/2000/svg"
   xmlns="http://www.w3.org/2000/svg"
   xmlns:sodipodi="http://sodipodi.sourceforge.net/DTD/sodipodi-0.dtd"
   xmlns:inkscape="http://www.inkscape.org/namespaces/inkscape"
   version="1.1"
   id="svg9454"
   xml:space="preserve"
   width="541.58264"
   height="438.09332"
   viewBox="0 0 541.58264 438.09332"
   sodipodi:docname="social.svg"
   inkscape:version="0.92.2 5c3e80d, 2017-08-06"><metadata
     id="metadata9460"><rdf:RDF><cc:Work
         rdf:about=""><dc:format>image/svg+xml</dc:format><dc:type
           rdf:resource="http://purl.org/dc/dcmitype/StillImage" /><dc:title></dc:title></cc:Work></rdf:RDF></metadata><defs
     id="defs9458"><clipPath
       clipPathUnits="userSpaceOnUse"
       id="clipPath9470"><path
         d="M 0,328.57 H 406.188 V 0 H 0 Z"
         id="path9468"
         inkscape:connector-curvature="0" /></clipPath><clipPath
       clipPathUnits="userSpaceOnUse"
       id="clipPath9540"><path
         d="m 138.774,113.146 h 119 V 79.1465 h -119 z"
         id="path9538"
         inkscape:connector-curvature="0" /></clipPath><clipPath
       clipPathUnits="userSpaceOnUse"
       id="clipPath9580"><path
         d="M 72.7773,102.562 H 191.777 V 68.5615 H 72.7773 Z"
         id="path9578"
         inkscape:connector-curvature="0" /></clipPath><clipPath
       clipPathUnits="userSpaceOnUse"
       id="clipPath9620"><path
         d="m 205.566,99.0625 h 119 v -34 h -119 z"
         id="path9618"
         inkscape:connector-curvature="0" /></clipPath></defs><sodipodi:namedview
     pagecolor="#ffffff"
     bordercolor="#666666"
     borderopacity="1"
     objecttolerance="10"
     gridtolerance="10"
     guidetolerance="10"
     inkscape:pageopacity="0"
     inkscape:pageshadow="2"
     inkscape:window-width="640"
     inkscape:window-height="480"
     id="namedview9456"
     showgrid="false"
     inkscape:zoom="0.53869801"
     inkscape:cx="270.79132"
     inkscape:cy="219.04666"
     inkscape:window-x="0"
     inkscape:window-y="0"
     inkscape:window-maximized="0"
     inkscape:current-layer="g9462" /><g
     id="g9462"
     inkscape:groupmode="layer"
     inkscape:label="Habits"
     transform="matrix(1.3333333,0,0,-1.3333333,0,438.09333)"><g
       id="g9464"><g
         id="g9466"
         clip-path="url(#clipPath9470)"><g
           id="g9472"
           transform="translate(20.5938,55.6563)"><path
             d="m 0,0 c 3,-0.104 5.552,-1.239 7.656,-3.406 2.083,-2.167 3.125,-4.761 3.125,-7.782 v -4.593 H 1.844 v 4.593 c 0,0.605 -0.219,1.125 -0.656,1.563 -0.438,0.437 -0.969,0.656 -1.594,0.656 -0.542,0 -1.011,-0.167 -1.407,-0.5 -0.062,-0.042 -0.115,-0.094 -0.156,-0.156 H -2 C -2.042,-9.667 -2.084,-9.719 -2.125,-9.781 H -2.156 C -2.198,-9.844 -2.229,-9.896 -2.25,-9.938 v -0.031 h -0.031 c -0.042,-0.062 -0.073,-0.114 -0.094,-0.156 0.021,0.021 0.021,0.011 0,-0.031 -0.042,-0.063 -0.073,-0.115 -0.094,-0.157 l -0.031,-0.093 -0.031,-0.125 -0.032,-0.125 -0.031,-0.094 c 0,-0.021 -0.01,-0.063 -0.031,-0.125 v -0.094 -0.219 -9.906 c 0,-0.625 0.219,-1.156 0.656,-1.594 0.438,-0.416 0.958,-0.625 1.563,-0.625 L 0,-23.344 c 3,-0.104 5.552,-1.239 7.656,-3.406 2.083,-2.167 3.125,-4.761 3.125,-7.781 0,-3.083 -1.084,-5.719 -3.25,-7.907 -2.187,-2.187 -4.834,-3.281 -7.937,-3.281 h -11.188 v 8.969 h 11.188 c 0.625,0 1.156,0.219 1.594,0.656 0.437,0.438 0.656,0.958 0.656,1.563 0,0.625 -0.219,1.156 -0.656,1.593 -0.438,0.438 -0.969,0.657 -1.594,0.657 h -0.438 c -2.979,0.125 -5.51,1.26 -7.594,3.406 -2.083,2.167 -3.135,4.75 -3.156,7.75 v 9.969 c 0.021,3.083 1.115,5.708 3.281,7.875 2.167,2.167 4.792,3.26 7.875,3.281 z"
             style="fill:#231f20;fill-opacity:1;fill-rule:nonzero;stroke:none"
             id="path9474"
             inkscape:connector-curvature="0" /></g><g
           id="g9476"
           transform="translate(47.5313,44.4688)"><path
             d="M 0,0 C -0.021,0.625 -0.24,1.156 -0.656,1.594 -1.094,2.031 -1.625,2.25 -2.25,2.25 -2.875,2.25 -3.406,2.031 -3.844,1.594 -4.281,1.156 -4.5,0.625 -4.5,0 v -24.25 c 0,-0.625 0.219,-1.156 0.656,-1.594 0.438,-0.437 0.969,-0.656 1.594,-0.656 0.625,0 1.156,0.219 1.594,0.656 0.437,0.438 0.656,0.969 0.656,1.594 z m 8.938,-24.313 c -0.022,-3.083 -1.125,-5.708 -3.313,-7.875 -2.167,-2.166 -4.792,-3.25 -7.875,-3.25 -3.063,0 -5.688,1.084 -7.875,3.25 -2.188,2.146 -3.292,4.75 -3.313,7.813 V 0.094 c 0.021,3.083 1.125,5.698 3.313,7.844 2.187,2.166 4.812,3.25 7.875,3.25 3.083,0 5.708,-1.084 7.875,-3.25 C 7.813,5.771 8.916,3.146 8.938,0.063 Z"
             style="fill:#231f20;fill-opacity:1;fill-rule:nonzero;stroke:none"
             id="path9478"
             inkscape:connector-curvature="0" /></g><g
           id="g9480"
           transform="translate(81.5938,24.6875)"><path
             d="m 0,0 v -4.531 c -0.021,-3.083 -1.125,-5.719 -3.313,-7.907 -2.187,-2.166 -4.812,-3.25 -7.875,-3.25 -3.083,0 -5.718,1.084 -7.906,3.25 -2.187,2.167 -3.292,4.782 -3.312,7.844 v 24.5 c 0.02,3.063 1.125,5.677 3.312,7.844 2.188,2.167 4.823,3.25 7.906,3.25 3.063,0 5.688,-1.083 7.875,-3.25 2.188,-2.187 3.292,-4.823 3.313,-7.906 v -4.531 h -8.969 v 4.5 c 0,0.604 -0.219,1.125 -0.656,1.562 -0.438,0.438 -0.959,0.656 -1.563,0.656 -0.625,0 -1.156,-0.218 -1.593,-0.656 -0.438,-0.437 -0.657,-0.958 -0.657,-1.562 V -4.469 c 0,-0.625 0.219,-1.156 0.657,-1.594 0.437,-0.437 0.968,-0.656 1.593,-0.656 0.604,0 1.125,0.219 1.563,0.656 0.437,0.438 0.656,0.969 0.656,1.594 l 0,4.469 z"
             style="fill:#231f20;fill-opacity:1;fill-rule:nonzero;stroke:none"
             id="path9482"
             inkscape:connector-curvature="0" /></g><path
           d="M 92.969,9.906 H 84 V 54.75 h 8.969 z"
           style="fill:#231f20;fill-opacity:1;fill-rule:nonzero;stroke:none"
           id="path9484"
           inkscape:connector-curvature="0" /><g
           id="g9486"
           transform="translate(109.6563,27.875)"><path
             d="m 0,0 v 16.594 c 0,0.625 -0.219,1.156 -0.656,1.594 -0.438,0.437 -0.959,0.656 -1.563,0.656 -0.625,0 -1.156,-0.219 -1.594,-0.656 C -4.25,17.75 -4.469,17.219 -4.469,16.594 V 0 Z m -2.219,27.813 c 3.083,0 5.719,-1.094 7.907,-3.282 2.187,-2.187 3.281,-4.833 3.281,-7.937 V -17.938 H 0 v 8.969 h -4.469 v -8.969 h -8.969 v 34.532 c 0,3.104 1.094,5.75 3.282,7.937 2.187,2.188 4.833,3.282 7.937,3.282"
             style="fill:#231f20;fill-opacity:1;fill-rule:nonzero;stroke:none"
             id="path9488"
             inkscape:connector-curvature="0" /></g><g
           id="g9490"
           transform="translate(141.625,18.875)"><path
             d="m 0,0 v -8.969 h -19.719 v 44.844 h 8.969 L -10.75,0 Z"
             style="fill:#231f20;fill-opacity:1;fill-rule:nonzero;stroke:none"
             id="path9492"
             inkscape:connector-curvature="0" /></g><path
           d="m 164.625,9.906 h -8.969 V 54.75 h 8.969 z"
           style="fill:#231f20;fill-opacity:1;fill-rule:nonzero;stroke:none"
           id="path9494"
           inkscape:connector-curvature="0" /><g
           id="g9496"
           transform="translate(190.5,54.7188)"><path
             d="m 0,0 v -44.75 h -8.938 v 15.781 l -4.5,10.5 V -44.75 h -8.937 V 0 h 8.937 v -0.219 l 4.5,-10.5 V 0 Z"
             style="fill:#231f20;fill-opacity:1;fill-rule:nonzero;stroke:none"
             id="path9498"
             inkscape:connector-curvature="0" /></g><g
           id="g9500"
           transform="translate(215.0938,45.75)"><path
             d="m 0,0 h -6.781 v -35.813 h -8.938 V 0 h -6.656 V 8.969 H 0 Z"
             style="fill:#231f20;fill-opacity:1;fill-rule:nonzero;stroke:none"
             id="path9502"
             inkscape:connector-curvature="0" /></g><g
           id="g9504"
           transform="translate(225.0625,45.7813)"><path
             d="m 0,0 v -13.438 h 8.969 v -8.968 H 0 v -4.5 h 10.75 v -8.969 H -8.969 V 8.969 H 10.75 V 0 Z"
             style="fill:#231f20;fill-opacity:1;fill-rule:nonzero;stroke:none"
             id="path9506"
             inkscape:connector-curvature="0" /></g><g
           id="g9508"
           transform="translate(249.9063,32.3125)"><path
             d="M 0,0 C 0.625,0.021 1.156,0.239 1.594,0.656 2.031,1.094 2.25,1.625 2.25,2.25 v 8.969 c 0,0.604 -0.219,1.125 -0.656,1.562 C 1.156,13.219 0.625,13.438 0,13.438 H -2.219 V 0 Z M 12.719,-22.375 H 3.781 l -1.531,10.781 -0.031,0.406 c -0.105,0.625 -0.406,1.157 -0.906,1.594 -0.5,0.438 -1.053,0.656 -1.657,0.656 h -1.875 v -13.437 h -8.969 V 22.406 H 0.063 c 3.062,-0.02 5.687,-1.114 7.875,-3.281 2.166,-2.167 3.25,-4.792 3.25,-7.875 V 2.219 c 0,-2.771 -0.907,-5.198 -2.719,-7.282 1.478,-1.833 2.375,-3.854 2.687,-6.062 l 0.032,-0.25 z"
             style="fill:#231f20;fill-opacity:1;fill-rule:nonzero;stroke:none"
             id="path9510"
             inkscape:connector-curvature="0" /></g><g
           id="g9512"
           transform="translate(277.4063,27.875)"><path
             d="m 0,0 v 16.594 c 0,0.625 -0.219,1.156 -0.656,1.594 -0.438,0.437 -0.959,0.656 -1.563,0.656 -0.625,0 -1.156,-0.219 -1.594,-0.656 C -4.25,17.75 -4.469,17.219 -4.469,16.594 V 0 Z m -2.219,27.813 c 3.083,0 5.719,-1.094 7.907,-3.282 2.187,-2.187 3.281,-4.833 3.281,-7.937 V -17.938 H 0 v 8.969 h -4.469 v -8.969 h -8.969 v 34.532 c 0,3.104 1.094,5.75 3.282,7.937 2.187,2.188 4.833,3.282 7.937,3.282"
             style="fill:#231f20;fill-opacity:1;fill-rule:nonzero;stroke:none"
             id="path9514"
             inkscape:connector-curvature="0" /></g><g
           id="g9516"
           transform="translate(311.8438,24.6875)"><path
             d="m 0,0 v -4.531 c -0.021,-3.083 -1.125,-5.719 -3.313,-7.907 -2.187,-2.166 -4.812,-3.25 -7.875,-3.25 -3.083,0 -5.718,1.084 -7.906,3.25 -2.187,2.167 -3.292,4.782 -3.312,7.844 v 24.5 c 0.02,3.063 1.125,5.677 3.312,7.844 2.188,2.167 4.823,3.25 7.906,3.25 3.063,0 5.688,-1.083 7.875,-3.25 2.188,-2.187 3.292,-4.823 3.313,-7.906 v -4.531 h -8.969 v 4.5 c 0,0.604 -0.219,1.125 -0.656,1.562 -0.438,0.438 -0.959,0.656 -1.563,0.656 -0.625,0 -1.156,-0.218 -1.593,-0.656 -0.438,-0.437 -0.657,-0.958 -0.657,-1.562 V -4.469 c 0,-0.625 0.219,-1.156 0.657,-1.594 0.437,-0.437 0.968,-0.656 1.593,-0.656 0.604,0 1.125,0.219 1.563,0.656 0.437,0.438 0.656,0.969 0.656,1.594 l 0,4.469 z"
             style="fill:#231f20;fill-opacity:1;fill-rule:nonzero;stroke:none"
             id="path9518"
             inkscape:connector-curvature="0" /></g><g
           id="g9520"
           transform="translate(335.9688,45.75)"><path
             d="m 0,0 h -6.781 v -35.813 h -8.938 V 0 h -6.656 V 8.969 H 0 Z"
             style="fill:#231f20;fill-opacity:1;fill-rule:nonzero;stroke:none"
             id="path9522"
             inkscape:connector-curvature="0" /></g><path
           d="m 345.844,9.906 h -8.969 V 54.75 h 8.969 z"
           style="fill:#231f20;fill-opacity:1;fill-rule:nonzero;stroke:none"
           id="path9524"
           inkscape:connector-curvature="0" /><g
           id="g9526"
           transform="translate(362.9063,44.4688)"><path
             d="M 0,0 C -0.021,0.625 -0.24,1.156 -0.656,1.594 -1.094,2.031 -1.625,2.25 -2.25,2.25 -2.875,2.25 -3.406,2.031 -3.844,1.594 -4.281,1.156 -4.5,0.625 -4.5,0 v -24.25 c 0,-0.625 0.219,-1.156 0.656,-1.594 0.438,-0.437 0.969,-0.656 1.594,-0.656 0.625,0 1.156,0.219 1.594,0.656 0.437,0.438 0.656,0.969 0.656,1.594 z m 8.938,-24.313 c -0.022,-3.083 -1.125,-5.708 -3.313,-7.875 -2.167,-2.166 -4.792,-3.25 -7.875,-3.25 -3.063,0 -5.688,1.084 -7.875,3.25 -2.188,2.146 -3.292,4.75 -3.313,7.813 V 0.094 c 0.021,3.083 1.125,5.698 3.313,7.844 2.187,2.166 4.812,3.25 7.875,3.25 3.083,0 5.708,-1.084 7.875,-3.25 C 7.813,5.771 8.916,3.146 8.938,0.063 Z"
             style="fill:#231f20;fill-opacity:1;fill-rule:nonzero;stroke:none"
             id="path9528"
             inkscape:connector-curvature="0" /></g><g
           id="g9530"
           transform="translate(397.1875,54.7188)"><path
             d="m 0,0 v -44.75 h -8.938 v 15.781 l -4.5,10.5 V -44.75 h -8.937 V 0 h 8.937 v -0.219 l 4.5,-10.5 V 0 Z"
             style="fill:#231f20;fill-opacity:1;fill-rule:nonzero;stroke:none"
             id="path9532"
             inkscape:connector-curvature="0" /></g><g
           id="g9534"><g
             id="g9536" /><g
             id="g9548"><g
               clip-path="url(#clipPath9540)"
               id="g9546"
               style="opacity:0.630005"><g
                 transform="translate(257.7744,96.1465)"
                 id="g9544"><path
                   d="m 0,0 c 0,-9.389 -26.639,-17 -59.5,-17 -32.861,0 -59.5,7.611 -59.5,17 0,9.389 26.639,17 59.5,17 C -26.639,17 0,9.389 0,0"
                   style="fill:#c02d2b;fill-opacity:1;fill-rule:nonzero;stroke:none"
                   id="path9542"
                   inkscape:connector-curvature="0" /></g></g></g></g><g
           id="g9550"
           transform="translate(223.8901,297.0723)"><path
             d="m 0,0 c 0,-12.426 -10.073,-22.499 -22.499,-22.499 -12.425,0 -22.499,10.073 -22.499,22.499 0,12.425 10.074,22.498 22.499,22.498 C -10.073,22.498 0,12.425 0,0"
             style="fill:#231f20;fill-opacity:1;fill-rule:nonzero;stroke:none"
             id="path9552"
             inkscape:connector-curvature="0" /></g><g
           id="g9554"
           transform="translate(226.9404,199.7656)"><path
             d="m 0,0 c -0.171,-3.772 -2.919,-11.738 -9.54,-11.438 l -31.465,1.426 c -6.62,0.299 -11.849,3.602 -11.678,7.374 l 2.436,53.797 c 0.171,3.774 6.218,18.544 12.839,18.244 l 20.977,-0.95 c 6.62,-0.301 13.037,-10.5 12.867,-14.273 z"
             style="fill:#231f20;fill-opacity:1;fill-rule:nonzero;stroke:none"
             id="path9556"
             inkscape:connector-curvature="0" /></g><g
           id="g9558"
           transform="translate(174.1079,198.4795)"><path
             d="m 0,0 c 0,0 -4.38,-56.134 6.292,-96.708 0.711,-2.705 -17.202,-5.811 2.875,-5.625 10.499,76.496 8.166,77 18.95,76.432 9.883,-6.765 10.819,-8.388 7.768,-77.62 2.532,-0.812 10.619,-0.569 9.782,0.688 -1.5,2.25 -7,2.937 -6,6.062 21.651,44.085 11.666,108.105 11.666,108.105 z"
             style="fill:#231f20;fill-opacity:1;fill-rule:nonzero;stroke:none"
             id="path9560"
             inkscape:connector-curvature="0" /></g><g
           id="g9562"
           transform="translate(208.1079,266.8125)"><path
             d="m 0,0 c 0,-1.473 -3.358,-2.666 -7.5,-2.666 -4.142,0 -7.5,1.193 -7.5,2.666 0,0 1.667,4.334 1.667,6.001 C -13.333,6.834 -15,10 -15,10 c 0,1.473 3.358,2.667 7.5,2.667 C -3.358,12.667 0,11.473 0,10 0,10 -1,6.417 -1,5.667 -1,3.917 0,0 0,0"
             style="fill:#231f20;fill-opacity:1;fill-rule:nonzero;stroke:none"
             id="path9564"
             inkscape:connector-curvature="0" /></g><g
           id="g9566"
           transform="translate(189.2744,262.6465)"><path
             d="m 0,0 c 0,0 -14.765,5.397 -19.056,2.83 -4.29,-2.568 -25.808,36.022 -25.444,39.502 0.166,1.587 -6.928,12.022 -5.333,4.166 1.902,-9.374 13.793,-40.237 21.52,-55.269 12.773,-2.843 10.183,-3.578 14.398,-6.533 4.216,-2.955 9.085,-4.469 9.085,-4.469"
             style="fill:#231f20;fill-opacity:1;fill-rule:nonzero;stroke:none"
             id="path9568"
             inkscape:connector-curvature="0" /></g><g
           id="g9570"
           transform="translate(213.3984,262.6465)"><path
             d="m 0,0 c 0,0 14.765,5.397 19.056,2.83 4.29,-2.568 28.684,43.69 28.32,47.17 -0.166,1.587 2.594,0.355 1,-7.5 C 46.474,33.126 36.04,6.261 28.313,-8.771 15.54,-11.614 18.13,-12.349 13.915,-15.304 9.699,-18.259 4.83,-19.773 4.83,-19.773"
             style="fill:#231f20;fill-opacity:1;fill-rule:nonzero;stroke:none"
             id="path9572"
             inkscape:connector-curvature="0" /></g><g
           id="g9574"><g
             id="g9576" /><g
             id="g9588"><g
               clip-path="url(#clipPath9580)"
               id="g9586"
               style="opacity:0.630005"><g
                 transform="translate(191.7773,85.5615)"
                 id="g9584"><path
                   d="m 0,0 c 0,-9.389 -26.639,-17 -59.5,-17 -32.861,0 -59.5,7.611 -59.5,17 0,9.389 26.639,17 59.5,17 C -26.639,17 0,9.389 0,0"
                   style="fill:#00a650;fill-opacity:1;fill-rule:nonzero;stroke:none"
                   id="path9582"
                   inkscape:connector-curvature="0" /></g></g></g></g><g
           id="g9590"
           transform="translate(157.8931,286.4873)"><path
             d="m 0,0 c 0,-12.426 -10.073,-22.499 -22.499,-22.499 -12.425,0 -22.499,10.073 -22.499,22.499 0,12.425 10.074,22.498 22.499,22.498 C -10.073,22.498 0,12.425 0,0"
             style="fill:#231f20;fill-opacity:1;fill-rule:nonzero;stroke:none"
             id="path9592"
             inkscape:connector-curvature="0" /></g><g
           id="g9594"
           transform="translate(160.9434,189.1807)"><path
             d="m 0,0 c -0.171,-3.772 -2.919,-11.738 -9.54,-11.438 l -31.465,1.426 c -6.62,0.299 -11.849,3.602 -11.678,7.374 l 2.436,53.797 c 0.171,3.774 6.218,18.544 12.839,18.244 l 20.977,-0.95 c 6.62,-0.301 13.037,-10.5 12.867,-14.273 z"
             style="fill:#231f20;fill-opacity:1;fill-rule:nonzero;stroke:none"
             id="path9596"
             inkscape:connector-curvature="0" /></g><g
           id="g9598"
           transform="translate(108.1108,187.8945)"><path
             d="m 0,0 c 0,0 -4.38,-56.134 6.292,-96.708 0.711,-2.705 -17.202,-5.811 2.875,-5.625 10.499,76.496 8.166,77 18.95,76.432 9.883,-6.765 10.819,-8.388 7.768,-77.62 2.532,-0.812 10.619,-0.569 9.782,0.688 -1.5,2.25 -7,2.937 -6,6.062 21.651,44.085 11.666,108.105 11.666,108.105 z"
             style="fill:#231f20;fill-opacity:1;fill-rule:nonzero;stroke:none"
             id="path9600"
             inkscape:connector-curvature="0" /></g><g
           id="g9602"
           transform="translate(142.1108,256.2275)"><path
             d="m 0,0 c 0,-1.473 -3.358,-2.666 -7.5,-2.666 -4.142,0 -7.5,1.193 -7.5,2.666 0,0 1.667,4.334 1.667,6.001 C -13.333,6.834 -15,10 -15,10 c 0,1.473 3.358,2.667 7.5,2.667 C -3.358,12.667 0,11.473 0,10 0,10 -1,6.417 -1,5.667 -1,3.917 0,0 0,0"
             style="fill:#231f20;fill-opacity:1;fill-rule:nonzero;stroke:none"
             id="path9604"
             inkscape:connector-curvature="0" /></g><g
           id="g9606"
           transform="translate(123.2773,252.0615)"><path
             d="m 0,0 c 0,0 -14.765,5.397 -19.056,2.83 -4.29,-2.568 -25.808,36.022 -25.444,39.502 0.166,1.587 -6.928,12.022 -5.333,4.166 1.902,-9.374 13.793,-40.237 21.52,-55.269 12.773,-2.843 10.183,-3.578 14.398,-6.533 4.216,-2.955 9.085,-4.469 9.085,-4.469"
             style="fill:#231f20;fill-opacity:1;fill-rule:nonzero;stroke:none"
             id="path9608"
             inkscape:connector-curvature="0" /></g><g
           id="g9610"
           transform="translate(147.4014,252.0615)"><path
             d="m 0,0 c 0,0 14.765,5.397 19.056,2.83 4.29,-2.568 28.684,43.69 28.32,47.17 -0.166,1.587 2.594,0.355 1,-7.5 C 46.474,33.126 36.04,6.261 28.313,-8.771 15.54,-11.614 18.13,-12.349 13.915,-15.304 9.699,-18.259 4.83,-19.773 4.83,-19.773"
             style="fill:#231f20;fill-opacity:1;fill-rule:nonzero;stroke:none"
             id="path9612"
             inkscape:connector-curvature="0" /></g><g
           id="g9614"><g
             id="g9616" /><g
             id="g9628"><g
               clip-path="url(#clipPath9620)"
               id="g9626"
               style="opacity:0.630005"><g
                 transform="translate(324.5664,82.0625)"
                 id="g9624"><path
                   d="m 0,0 c 0,-9.389 -26.639,-17 -59.5,-17 -32.861,0 -59.5,7.611 -59.5,17 0,9.389 26.639,17 59.5,17 C -26.639,17 0,9.389 0,0"
                   style="fill:#782f9a;fill-opacity:1;fill-rule:nonzero;stroke:none"
                   id="path9622"
                   inkscape:connector-curvature="0" /></g></g></g></g><g
           id="g9630"
           transform="translate(290.6821,282.9883)"><path
             d="m 0,0 c 0,-12.426 -10.073,-22.499 -22.499,-22.499 -12.425,0 -22.499,10.073 -22.499,22.499 0,12.425 10.074,22.498 22.499,22.498 C -10.073,22.498 0,12.425 0,0"
             style="fill:#231f20;fill-opacity:1;fill-rule:nonzero;stroke:none"
             id="path9632"
             inkscape:connector-curvature="0" /></g><g
           id="g9634"
           transform="translate(293.7324,185.6816)"><path
             d="m 0,0 c -0.171,-3.772 -2.919,-11.738 -9.54,-11.438 l -31.465,1.426 c -6.62,0.299 -11.849,3.602 -11.678,7.374 l 2.436,53.797 c 0.171,3.774 6.218,18.544 12.839,18.244 l 20.977,-0.95 c 6.62,-0.301 13.037,-10.5 12.867,-14.273 z"
             style="fill:#231f20;fill-opacity:1;fill-rule:nonzero;stroke:none"
             id="path9636"
             inkscape:connector-curvature="0" /></g><g
           id="g9638"
           transform="translate(240.8999,184.3955)"><path
             d="m 0,0 c 0,0 -4.38,-56.134 6.292,-96.708 0.711,-2.705 -17.202,-5.811 2.875,-5.625 10.499,76.496 8.166,77 18.95,76.432 9.883,-6.765 10.819,-8.388 7.768,-77.62 2.532,-0.812 10.619,-0.569 9.782,0.688 -1.5,2.25 -7,2.937 -6,6.062 21.651,44.085 11.666,108.105 11.666,108.105 z"
             style="fill:#231f20;fill-opacity:1;fill-rule:nonzero;stroke:none"
             id="path9640"
             inkscape:connector-curvature="0" /></g><g
           id="g9642"
           transform="translate(274.8999,252.7285)"><path
             d="m 0,0 c 0,-1.473 -3.358,-2.666 -7.5,-2.666 -4.142,0 -7.5,1.193 -7.5,2.666 0,0 1.667,4.334 1.667,6.001 C -13.333,6.834 -15,10 -15,10 c 0,1.473 3.358,2.667 7.5,2.667 C -3.358,12.667 0,11.473 0,10 0,10 -1,6.417 -1,5.667 -1,3.917 0,0 0,0"
             style="fill:#231f20;fill-opacity:1;fill-rule:nonzero;stroke:none"
             id="path9644"
             inkscape:connector-curvature="0" /></g><g
           id="g9646"
           transform="translate(256.0664,248.5625)"><path
             d="m 0,0 c 0,0 -14.765,5.397 -19.056,2.83 -4.29,-2.568 -25.808,36.022 -25.444,39.502 0.166,1.587 -6.928,12.022 -5.333,4.166 1.902,-9.374 13.793,-40.237 21.52,-55.269 12.773,-2.843 10.183,-3.578 14.398,-6.533 4.216,-2.955 9.085,-4.469 9.085,-4.469"
             style="fill:#231f20;fill-opacity:1;fill-rule:nonzero;stroke:none"
             id="path9648"
             inkscape:connector-curvature="0" /></g><g
           id="g9650"
           transform="translate(280.1904,248.5625)"><path
             d="m 0,0 c 0,0 14.765,5.397 19.056,2.83 4.29,-2.568 28.684,43.69 28.32,47.17 -0.166,1.587 2.594,0.355 1,-7.5 C 46.474,33.126 36.04,6.261 28.313,-8.771 15.54,-11.614 18.13,-12.349 13.915,-15.304 9.699,-18.259 4.83,-19.773 4.83,-19.773"
             style="fill:#231f20;fill-opacity:1;fill-rule:nonzero;stroke:none"
             id="path9652"
             inkscape:connector-curvature="0" /></g></g></g></g></svg>